<svg xmlns="http://www.w3.org/2000/svg" xmlns:xlink="http://www.w3.org/1999/xlink" width="124" height="124" viewBox="0 0 124 124">
  <defs>
    <rect id="exp_apple-a" width="124" height="124"/>
  </defs>
  <g fill="none" fill-rule="evenodd">
    <mask id="exp_apple-b" fill="#fff">
      <use xlink:href="#exp_apple-a"/>
    </mask>
    <use fill="#FFF" xlink:href="#exp_apple-a"/>
    <g mask="url(#exp_apple-b)">
      <g transform="translate(19 20)">
        <path fill="#C27F54" d="M47.0002667,9.5829443 L47.0002667,9.5829443 C49.0361278,9.5829443 50.6865193,11.2333358 50.6865193,13.2691969 C50.6865193,13.3759063 50.6818858,13.4825654 50.6726318,13.5888727 L48.8730336,34.2622611 C48.7884783,35.2336136 47.9752925,35.9790876 47.0002667,35.9790876 L47.0002667,35.9790876 C46.0252408,35.9790876 45.212055,35.2336136 45.1274998,34.2622611 L43.3279015,13.5888727 C43.1513494,11.5606815 44.6523996,9.77338384 46.6805909,9.59683178 C46.7868982,9.58757782 46.8935573,9.5829443 47.0002667,9.5829443 Z" transform="rotate(23 47 22.781)"/>
        <path fill="#86C633" d="M31.0233919,36.9658818 C32.1784848,36.9658818 39.0320362,27.2213206 39.0320362,18.9263635 C39.0320362,10.6314065 32.4865096,0.886845257 31.0233919,0.886845257 C29.5602741,0.886845257 23.0147475,10.3898058 23.0147475,18.9263635 C23.0147475,27.4629213 29.8682989,36.9658818 31.0233919,36.9658818 Z" transform="scale(-1 1) rotate(41 0 -64.05)"/>
        <rect width="41.208" height="55.483" x="11.646" y="21.358" fill="#EE4B4B" rx="20.604" transform="rotate(-30 32.25 49.1)"/>
        <rect width="41.208" height="55.483" x="33.146" y="21.358" fill="#EE4B4B" rx="20.604" transform="scale(-1 1) rotate(-30 0 249.697)"/>
        <ellipse cx="27.771" cy="41.046" fill="#FF6A6A" rx="8.958" ry="8.949"/>
      </g>
    </g>
  </g>
</svg>
