<svg xmlns="http://www.w3.org/2000/svg" xmlns:xlink="http://www.w3.org/1999/xlink" width="124" height="124" viewBox="0 0 124 124">
  <defs>
    <rect id="exp_boy-a" width="124" height="124"/>
  </defs>
  <g fill="none" fill-rule="evenodd">
    <mask id="exp_boy-b" fill="#fff">
      <use xlink:href="#exp_boy-a"/>
    </mask>
    <use fill="#FFF" xlink:href="#exp_boy-a"/>
    <g mask="url(#exp_boy-b)">
      <g transform="translate(17 11)">
        <path fill="#73412A" stroke="#73412A" stroke-linecap="round" stroke-linejoin="round" stroke-width="1.4" d="M84.4733843,38.1582931 C87.944818,42.7848429 87.5066243,49.3071936 83.3753644,53.4351118 C79.2443837,57.5627511 72.7176287,58.0005316 68.0877553,54.5322219 L67.4411618,54.0478487 L83.9892853,37.5131105 L84.4733843,38.1582931 Z" transform="rotate(43 77.306 47.37)"/>
        <path fill="#73412A" stroke="#73412A" stroke-linecap="round" stroke-linejoin="round" stroke-width="1.4" d="M19.5896634,38.1582931 C23.061097,42.7848429 22.6229033,49.3071936 18.4916435,53.4351118 C14.3606628,57.5627511 7.83390774,58.0005316 3.20403433,54.5322219 L2.55744084,54.0478487 L19.1055643,37.5131105 L19.5896634,38.1582931 Z" transform="rotate(43 12.422 47.37)"/>
        <g transform="translate(2.093 21.658)">
          <path fill="#DE8466" d="M75.7455626,51.3314037 C81.6786975,51.3314037 86.4884537,46.5371032 86.4884537,40.6230338 C86.4884537,34.7089644 81.6786975,29.9146639 75.7455626,29.9146639 C69.8124277,29.9146639 65.0026716,34.7089644 65.0026716,40.6230338 C65.0026716,46.5371032 69.8124277,51.3314037 75.7455626,51.3314037 Z"/>
          <ellipse cx="10.908" cy="40.623" fill="#DE8466" rx="10.743" ry="10.708"/>
          <g transform="translate(10.694 .014)">
            <rect width="65.346" height="79.084" fill="#E59B82" rx="32.673"/>
            <path fill="#BA725A" d="M20.441178 23.0896167L20.441178 23.0896167C22.3518002 23.0896167 23.9006655 24.638482 23.9006655 26.5491042L23.9006655 33.4505551C23.9006655 35.3611773 22.3518002 36.9100426 20.441178 36.9100426L20.441178 36.9100426C18.5305558 36.9100426 16.9816905 35.3611773 16.9816905 33.4505551L16.9816905 26.5491042C16.9816905 24.638482 18.5305558 23.0896167 20.441178 23.0896167zM44.9733373 23.1032144L44.9733373 23.1032144C46.8839595 23.1032144 48.4328248 24.6520797 48.4328248 26.5627019L48.4328248 33.4641528C48.4328248 35.374775 46.8839595 36.9236403 44.9733373 36.9236403L44.9733373 36.9236403C43.0627151 36.9236403 41.5138498 35.374775 41.5138498 33.4641528L41.5138498 26.5627019C41.5138498 24.6520797 43.0627151 23.1032144 44.9733373 23.1032144z"/>
            <path fill="#DE8466" d="M29.1710351,22.3561644 L36.7105538,22.3561644 C37.7939889,22.3561644 38.6722866,23.2344621 38.6722866,24.3178972 L38.6722866,38.8216661 C38.6722866,39.9051012 37.7939889,40.7833989 36.7105538,40.7833989 L29.1710351,40.7833989 C28.0876,40.7833989 27.2093023,39.9051012 27.2093023,38.8216661 L27.2093023,24.3178972 C27.2093023,23.2344621 28.0876,22.3561644 29.1710351,22.3561644 Z"/>
          </g>
        </g>
        <g transform="translate(6.28)">
          <path fill="#73412A" d="M50.5881404,51.79547 L33.7806925,51.79547 L33.7806925,30.5512342 C30.9763567,43.4624413 23.2184355,50.5438534 10.5069287,51.7954705 L0.370659373,51.79547 L0.370659373,49.8033292 C0.370659373,28.5552393 17.5956396,11.3302591 38.8437295,11.3302591 C60.0918194,11.3302591 77.3167996,28.5552393 77.3167996,49.8033292 L77.3167996,51.79547 L56.1421475,51.79547 L50.5881404,38.8466025 L50.5881404,51.79547 Z"/>
          <path fill="#73412A" stroke="#73412A" stroke-linecap="round" stroke-linejoin="round" stroke-width="1.4" d="M32.1089028,16.1660201 C32.9283336,10.4419231 37.8535391,6.13985231 43.6955502,6.13985231 C49.5375613,6.13985231 54.4627668,10.4419231 55.2821976,16.1660201 L55.3966063,16.9652171 L31.9944941,16.9652171 L32.1089028,16.1660201 Z" transform="rotate(-45 43.696 11.553)"/>
          <path fill="#73412A" stroke="#73412A" stroke-linecap="round" stroke-linejoin="round" stroke-width="1.4" d="M26.9202629,17.3708014 C27.5927827,12.6729443 31.6347175,9.14239328 36.4290834,9.14239328 C41.2234492,9.14239328 45.2653841,12.6729443 45.9379039,17.3708014 L46.0523126,18.1699983 L26.8058542,18.1699983 L26.9202629,17.3708014 Z" transform="scale(-1 1) rotate(-45 0 101.604)"/>
        </g>
        <path stroke="#CB826A" stroke-linecap="round" stroke-linejoin="round" stroke-width="2.8" d="M36.2790698,67.1620087 C38.7815212,69.2801948 42.0169515,70.5571545 45.5502238,70.5571545 C49.1351931,70.5571545 52.413541,69.2425538 54.9307495,67.0684932"/>
      </g>
    </g>
  </g>
</svg>
