<svg xmlns="http://www.w3.org/2000/svg" xmlns:xlink="http://www.w3.org/1999/xlink" width="124" height="124" viewBox="0 0 124 124">
  <defs>
    <rect id="exp_bread-a" width="124" height="124"/>
  </defs>
  <g fill="none" fill-rule="evenodd">
    <mask id="exp_bread-b" fill="#fff">
      <use xlink:href="#exp_bread-a"/>
    </mask>
    <use fill="#FFF" xlink:href="#exp_bread-a"/>
    <g mask="url(#exp_bread-b)">
      <g transform="translate(13 34)">
        <rect width="67.233" height="29.059" x="30.767" fill="#BA814D" rx="14.529"/>
        <path fill="#BA814D" d="M45.5813953,15.6470588 L89.6813953,15.6470588 L89.6813953,51.365351 C89.6813953,54.4772817 87.158677,57 84.0467463,57 L45.5813953,57 L45.5813953,15.6470588 Z"/>
        <path fill="#FFD9A9" stroke="#E09D60" stroke-width="3.381" d="M51.5258844,51.365351 L51.5258844,26.9750781 L52.6262191,26.5652065 C57.610115,24.7087193 60.9840239,19.9368953 60.9840239,14.5294118 C60.9840239,7.43861844 55.2358002,1.69039471 48.1450068,1.69039471 L14.8142955,1.69039471 C7.72350216,1.69039471 1.97527843,7.43861844 1.97527843,14.5294118 C1.97527843,19.7216615 5.08549573,24.3409924 9.77975241,26.3442216 L10.8066738,26.7824505 L10.8066738,51.365351 C10.8066738,53.5437025 12.5725766,55.3096053 14.7509281,55.3096053 L47.58163,55.3096053 C49.7599815,55.3096053 51.5258844,53.5437025 51.5258844,51.365351 Z"/>
        <ellipse cx="31.907" cy="15.647" fill="#ECC088" rx="4.558" ry="4.471"/>
        <ellipse cx="39.385" cy="21.864" fill="#ECC088" rx="2.92" ry="2.864"/>
        <ellipse cx="22.862" cy="44.776" fill="#ECC088" rx="3.49" ry="3.423"/>
      </g>
    </g>
  </g>
</svg>
