<svg xmlns="http://www.w3.org/2000/svg" xmlns:xlink="http://www.w3.org/1999/xlink" width="124" height="124" viewBox="0 0 124 124">
  <defs>
    <rect id="exp_girl-a" width="124" height="124"/>
  </defs>
  <g fill="none" fill-rule="evenodd">
    <mask id="exp_girl-b" fill="#fff">
      <use xlink:href="#exp_girl-a"/>
    </mask>
    <use fill="#FFF" xlink:href="#exp_girl-a"/>
    <g mask="url(#exp_girl-b)">
      <g transform="translate(19 14)">
        <path fill="#363636" d="M43.1935073,0 L43.1935073,0 C65.4986623,-4.09739049e-15 83.580563,18.0819008 83.580563,40.3870557 L83.580563,94.6 C83.580563,95.3731986 82.9537617,96 82.180563,96 L4.20645161,96 C3.43325296,96 2.80645161,95.3731986 2.80645161,94.6 L2.80645161,40.3870557 C2.80645161,18.0819008 20.8883524,4.09739049e-15 43.1935073,0 Z"/>
        <path fill="#8B4824" d="M75.6907036,60.0387512 C81.5574639,60.0387512 86.3134129,55.3033623 86.3134129,49.4619641 C86.3134129,43.6205659 81.5574639,38.885177 75.6907036,38.885177 C69.8239433,38.885177 65.0679944,43.6205659 65.0679944,49.4619641 C65.0679944,55.3033623 69.8239433,60.0387512 75.6907036,60.0387512 Z"/>
        <ellipse cx="11.076" cy="49.462" fill="#8B4824" rx="10.623" ry="10.577"/>
        <rect width="64.615" height="78.112" x="11.028" y="9.322" fill="#A56644" rx="32.307"/>
        <path fill="#8B4824" d="M39.6298882,31.3015089 L47.1082738,31.3015089 C48.1731785,31.3015089 49.0364544,32.1647848 49.0364544,33.2296895 L49.0364544,47.5741318 C49.0364544,48.6390365 48.1731785,49.5023124 47.1082738,49.5023124 L39.6298882,49.5023124 C38.5649835,49.5023124 37.7017076,48.6390365 37.7017076,47.5741318 L37.7017076,33.2296895 C37.7017076,32.1647848 38.5649835,31.3015089 39.6298882,31.3015089 Z"/>
        <path fill="#8B4824" d="M39.6638605,31.3015089 L47.0743015,31.3015089 C48.1579686,31.3015089 49.0364544,32.1799947 49.0364544,33.2636618 L49.0364544,47.5401595 C49.0364544,48.6238266 48.1579686,49.5023124 47.0743015,49.5023124 L39.6638605,49.5023124 C38.5801934,49.5023124 37.7017076,48.6238266 37.7017076,47.5401595 L37.7017076,33.2636618 C37.7017076,32.1799947 38.5801934,31.3015089 39.6638605,31.3015089 Z"/>
        <path fill="#7B482D" d="M31.2402233 32.0598757L31.2402233 32.0598757C33.1294711 32.0598757 34.6610091 33.5914137 34.6610091 35.4806616L34.6610091 42.2896925C34.6610091 44.1789403 33.1294711 45.7104783 31.2402233 45.7104783L31.2402233 45.7104783C29.3509754 45.7104783 27.8194374 44.1789403 27.8194374 42.2896925L27.8194374 35.4806616C27.8194374 33.5914137 29.3509754 32.0598757 31.2402233 32.0598757zM55.4979387 32.0733064L55.4979387 32.0733064C57.3871866 32.0733064 58.9187246 33.6048444 58.9187246 35.4940922L58.9187246 42.3031232C58.9187246 44.192371 57.3871866 45.723909 55.4979387 45.723909L55.4979387 45.723909C53.6086909 45.723909 52.0771529 44.192371 52.0771529 42.3031232L52.0771529 35.4940922C52.0771529 33.6048444 53.6086909 32.0733064 55.4979387 32.0733064z"/>
        <path fill="#363636" d="M37.5369433,38.4139561 L37.5369433,23.6777003 C37.5369433,33.9828818 28.6152333,37.9890147 20.6947271,38.4139561 L6.11103776,38.4139561 L6.11103776,38.3394968 C6.11103776,18.8188329 21.9356625,2.99420812 41.4563264,2.99420812 C60.9769903,2.99420812 76.8016151,18.8188329 76.8016151,38.3394968 L76.8016151,38.4139561 L37.5369433,38.4139561 Z"/>
        <path stroke="#7B482D" stroke-linecap="round" stroke-linejoin="round" stroke-width="2.803" d="M34.1675624,53.7018849 C36.746847,55.8844102 40.0816154,57.200157 43.7233704,57.200157 C47.4184097,57.200157 50.7974134,55.8456258 53.3919082,53.6055289" opacity=".587"/>
      </g>
    </g>
  </g>
</svg>
