<svg xmlns="http://www.w3.org/2000/svg" xmlns:xlink="http://www.w3.org/1999/xlink" width="288" height="164" viewBox="0 0 288 164">
  <defs>
    <rect id="exp_i_am_thirteen-a" width="288" height="164"/>
  </defs>
  <g fill="none" fill-rule="evenodd">
    <mask id="exp_i_am_thirteen-b" fill="#fff">
      <use xlink:href="#exp_i_am_thirteen-a"/>
    </mask>
    <use fill="#FFF" xlink:href="#exp_i_am_thirteen-a"/>
    <g mask="url(#exp_i_am_thirteen-b)">
      <g transform="matrix(-1 0 0 1 152.097 17)">
        <path fill="#A56644" d="M51.5292044,92.439759 L56.9000129,92.439759 C57.4672692,92.439759 57.9271213,92.8996111 57.9271213,93.4668675 L57.9271213,135.025468 C57.9271213,135.592725 57.4672692,136.052577 56.9000129,136.052577 L51.5292044,136.052577 C50.9619481,136.052577 50.5020959,135.592725 50.5020959,135.025468 L50.5020959,93.4668675 C50.5020959,92.8996111 50.9619481,92.439759 51.5292044,92.439759 Z"/>
        <polygon fill="#000" points="50.502 92.44 57.927 92.44 57.927 117.184 50.502 117.184" opacity=".15"/>
        <path fill="#A56644" d="M65.600636,92.439759 L70.9714445,92.439759 C71.5387008,92.439759 71.9985529,92.8996111 71.9985529,93.4668675 L71.9985529,135.025468 C71.9985529,135.592725 71.5387008,136.052577 70.9714445,136.052577 L65.600636,136.052577 C65.0333797,136.052577 64.5735275,135.592725 64.5735275,135.025468 L64.5735275,93.4668675 C64.5735275,92.8996111 65.0333797,92.439759 65.600636,92.439759 Z"/>
        <polygon fill="#000" points="64.574 92.44 71.999 92.44 71.999 117.184 64.574 117.184" opacity=".15"/>
        <path fill="#4BA5F8" d="M63.7244451 92.439759L72.8476354 92.439759C73.4148917 92.439759 73.8747438 92.8996111 73.8747438 93.4668675L73.8747438 112.416216C73.8747438 112.983472 73.4148917 113.443324 72.8476354 113.443324L63.7244451 113.443324C63.1571888 113.443324 62.6973367 112.983472 62.6973367 112.416216L62.6973367 93.4668675C62.6973367 92.8996111 63.1571888 92.439759 63.7244451 92.439759zM49.6530135 92.439759L58.7762038 92.439759C59.3434601 92.439759 59.8033122 92.8996111 59.8033122 93.4668675L59.8033122 112.416216C59.8033122 112.983472 59.3434601 113.443324 58.7762038 113.443324L49.6530135 113.443324C49.0857572 113.443324 48.6259051 112.983472 48.6259051 112.416216L48.6259051 93.4668675C48.6259051 92.8996111 49.0857572 92.439759 49.6530135 92.439759z"/>
        <path fill="#A560E8" d="M64.2379993 134.924699L74.077893 134.924699C74.9287775 134.924699 75.6185557 135.614477 75.6185557 136.465361L75.6185557 143.645876C75.6185557 144.49676 74.9287775 145.186538 74.077893 145.186538L64.2379993 145.186538C63.3871148 145.186538 62.6973367 144.49676 62.6973367 143.645876L62.6973367 136.465361C62.6973367 135.614477 63.3871148 134.924699 64.2379993 134.924699zM48.7594246 134.924699L58.5993183 134.924699C59.4502028 134.924699 60.1399809 135.614477 60.1399809 136.465361L60.1399809 143.645876C60.1399809 144.49676 59.4502028 145.186538 58.5993183 145.186538L48.7594246 145.186538C47.9085401 145.186538 47.2187619 144.49676 47.2187619 143.645876L47.2187619 136.465361C47.2187619 135.614477 47.9085401 134.924699 48.7594246 134.924699z"/>
        <g transform="translate(60.352 58.358)">
          <g transform="scale(-1 1) rotate(8 -64.672 -237.62)">
            <rect width="5.3" height="13.904" x="3.587" y="37.852" fill="#8B4824" rx="2.65" transform="rotate(19 6.236 44.804)"/>
            <path fill="#A56644" d="M7.84042405,44.2367967 L5.28381186,48.0271302 C4.47326245,49.2288191 2.84202099,49.5459003 1.64033207,48.7353509 L1.59851009,48.7071416 C0.396821177,47.8965922 0.0797399561,46.2653507 0.890289365,45.0636618 L5.72986867,37.8886904 C5.78426604,37.808043 5.8423598,37.7313798 5.90377203,37.6587744 L8.67338229,33.1514784 C8.76494797,33.0024633 8.8664476,32.8621297 8.97665146,32.7310188 L17.744297,0.00972012739 L26.8446847,2.44816165 L17.7133027,36.5269432 L17.7764875,41.6459918 L17.8920078,44.9540582 C17.9425945,46.402674 16.8092681,47.6180177 15.3606524,47.6686045 L15.3102367,47.6703651 C13.861621,47.7209518 12.6462772,46.5876254 12.5956904,45.1390097 L12.5853775,44.8436857 C12.4054017,43.7836516 11.8382205,43.102314 10.8838336,42.799673 C9.86199058,42.4756413 8.84752072,42.9546826 7.84042405,44.2367967 Z"/>
            <polygon fill="#A56644" points="12.402 10.218 21.901 10.268 21.901 30.469 12.402 30.419" transform="rotate(15 17.152 20.343)"/>
          </g>
          <path fill="#A560E8" d="M13.5273984,1.84539387 L13.5273984,1.84539387 C17.2862233,1.84539387 20.333353,4.89252353 20.333353,8.65134847 C20.333353,8.67915333 20.3331826,8.70695793 20.3328419,8.73476071 L20.0661335,30.4949782 C20.0625497,30.7873764 19.8244974,31.0225289 19.5320773,31.0225289 L6.82058165,31.0225289 C6.52560837,31.0225289 6.28648527,30.7834058 6.28648527,30.4884325 C6.28648527,30.4862505 6.28649864,30.4840685 6.28652538,30.4818867 L6.55307325,8.73476071 C6.59987512,4.91628626 9.70863716,1.84539387 13.5273984,1.84539387 Z" transform="scale(-1 1) rotate(29 0 -35.033)"/>
        </g>
        <path fill="#363636" d="M61.1005482,0 L61.1005482,0 C76.0121641,-2.73921939e-15 88.1004171,12.0882531 88.1004171,26.9998689 L88.1004171,68.1626506 C88.1004171,68.6783382 87.6823697,69.0963855 87.1666822,69.0963855 L35.0344143,69.0963855 C34.5187267,69.0963855 34.1006793,68.6783382 34.1006793,68.1626506 L34.1006793,26.9998689 C34.1006793,12.0882531 46.1889324,2.73921939e-15 61.1005482,0 Z"/>
        <g transform="rotate(5 -634.036 91.41)">
          <path fill="#A560E8" d="M44.1972837,2.42005006 L44.1972837,2.42005006 C47.7172202,2.42005006 50.5706926,5.27352241 50.5706926,8.79345894 C50.5706926,8.81942431 50.5705339,8.84538945 50.5702166,8.87135289 L50.3202476,29.3226915 C50.3168915,29.5972673 50.0933518,29.8180915 49.8187555,29.8180915 L37.9183201,29.8180915 C37.641333,29.8180915 37.4167905,29.593549 37.4167905,29.3165619 C37.4167905,29.3145187 37.416803,29.3124755 37.416828,29.3104324 L37.6666472,8.87135289 C37.7103508,5.2957133 40.621377,2.42005006 44.1972837,2.42005006 Z" transform="rotate(24 43.994 16.12)"/>
          <g transform="translate(0 3.822)">
            <g transform="scale(-1 1) rotate(6 -31.316 -229.28)">
              <rect width="14.283" height="5.048" x="2.904" y="4.063" fill="#8B4824" rx="2.524" transform="rotate(-40 10.046 6.587)"/>
              <path fill="#A56644" d="M12.2620576,14.7753086 L9.55325103,14.7753086 C5.54116369,14.7753086 2.28872428,11.5228692 2.28872428,7.51078189 L2.28872428,5.23292181 C2.28872428,2.47886186 4.52133099,0.246255144 7.27539095,0.246255144 L7.27539095,0.246255144 C10.0294509,0.246255144 12.2620576,2.47886186 12.2620576,5.23292181 L12.2620576,14.7753086 Z" transform="matrix(0 1 1 0 -.235 .235)"/>
              <rect width="9.358" height="5.048" x="12.262" y="6.156" fill="#8B4824" rx="2.524" transform="scale(1 -1) rotate(30 49.337 0)"/>
              <rect width="19.331" height="5.048" x="4.136" y="7.388" fill="#A56644" rx="2.524" transform="matrix(1 0 0 -1 0 19.824)"/>
            </g>
            <path fill="#A56644" d="M18.6214542,1.99923662 L18.6214542,1.99923662 C21.3579658,2.7324827 23.0566719,5.462581 22.505472,8.24148802 L18.5465406,28.2006778 C17.9261044,31.328644 14.8874238,33.3613988 11.7594576,32.7409626 C11.6348648,32.7162494 11.5111215,32.6874317 11.3884296,32.6545565 L7.61908793,31.6445645 L12.7781094,5.63504907 C13.284587,3.08161211 15.7651378,1.42222366 18.3185748,1.92870123 C18.4202829,1.94887518 18.5212977,1.97239978 18.6214542,1.99923662 Z" transform="scale(-1 1) rotate(36 -6.207 -49.424)"/>
          </g>
        </g>
        <rect width="28.143" height="13.853" x="47.219" y="86.837" fill="#4BA5F8" rx="6.927"/>
        <rect width="28.143" height="3.592" x="47.219" y="92.44"/>
        <g transform="translate(43.466 56.958)">
          <path fill="#CA94FF" d="M17.7356802,0.152540856 L17.7356802,0.152540856 C27.4499765,0.152540856 35.3249697,8.027534 35.3249697,17.7418304 L35.3249697,32.9499806 C35.3249697,34.3681214 34.1753394,35.5177517 32.7571986,35.5177517 L2.71416177,35.5177517 C1.29602096,35.5177517 0.14639069,34.3681214 0.14639069,32.9499806 L0.14639069,17.7418304 C0.14639069,8.027534 8.02138384,0.152540856 17.7356802,0.152540856 Z"/>
          <path fill="#A560E8" d="M26.317137,2.38433063 L26.317137,3.47592708 C26.317137,8.2780343 22.4242599,12.1709114 17.6221527,12.1709114 C12.8200455,12.1709114 8.92716843,8.2780343 8.92716843,3.47592708 L8.92716843,2.51370469 C11.517447,1.0121542 14.5261769,0.152540856 17.7356802,0.152540856 C20.8518403,0.152540856 23.7787356,0.962880392 26.317137,2.38433063 Z"/>
        </g>
        <path fill="#8B4824" d="M61.0885329,49.9548193 L61.0885329,49.9548193 C64.0857336,49.9548193 66.5154449,52.3845305 66.5154449,55.3817313 L66.5154449,60.4337584 C66.5154449,63.4309591 64.0857336,65.8606704 61.0885329,65.8606704 L61.0885329,65.8606704 C58.0913321,65.8606704 55.6616209,63.4309591 55.6616209,60.4337584 L55.6616209,55.3817313 C55.6616209,52.3845305 58.0913321,49.9548193 61.0885329,49.9548193 Z"/>
        <g transform="translate(32.21 1.07)">
          <path fill="#8B4824" d="M50.6013384,38.8197681 C54.5234307,38.8197681 57.7029147,35.673631 57.7029147,31.7926743 C57.7029147,27.9117175 54.5234307,24.7655804 50.6013384,24.7655804 C46.6792461,24.7655804 43.4997621,27.9117175 43.4997621,31.7926743 C43.4997621,35.673631 46.6792461,38.8197681 50.6013384,38.8197681 Z"/>
          <ellipse cx="7.405" cy="31.793" fill="#8B4824" rx="7.102" ry="7.027"/>
          <g transform="translate(3.372 .124)">
            <rect width="43.197" height="51.897" x="4" y="5" fill="#A56644" rx="21.598"/>
            <g transform="matrix(-1 0 0 1 39.478 35.813)">
              <path fill="#9A3030" d="M1.680341,1.56674673e-12 L18.178294,1.56674673e-12 C19.1063207,1.56822476e-12 19.858635,0.752314289 19.858635,1.680341 L19.858635,7.56153448 C19.858635,11.7376547 16.4732207,15.123069 12.2971005,15.123069 L7.56153448,15.123069 C3.3854143,15.123069 -1.64439501e-12,11.7376547 -1.64490643e-12,7.56153448 L-1.64512848e-12,1.680341 C-1.64524213e-12,0.752314289 0.752314289,1.56625107e-12 1.680341,1.5660806e-12 Z"/>
              <path fill="#B54646" d="M11.3972238,15.123069 L7.56153448,15.123069 C3.56566481,15.123069 0.293716886,12.0235915 0.0187121862,8.09765818 C1.04125644,7.61484126 2.17996592,7.34549064 3.38019319,7.34549064 C7.67218322,7.34549064 11.1775058,10.7898497 11.3972238,15.123069 Z"/>
              <path fill="#FFF" d="M17.7460142,1.56674673e-12 L17.7460142,3.0606211 C17.7460142,3.75664113 17.1817785,4.32087685 16.4857585,4.32087685 L-1.64490643e-12,4.32087685 L-1.64512848e-12,1.680341 C-1.64524213e-12,0.752314289 0.752314289,1.56625107e-12 1.680341,1.5660806e-12 L17.7460142,1.56674673e-12 Z"/>
            </g>
            <path fill="#8B4824" d="M18.3794613,19.939759 L23.3397248,19.939759 C24.0624804,19.939759 24.6483896,20.5256682 24.6483896,21.2484238 L24.6483896,30.7234955 C24.6483896,31.4462511 24.0624804,32.0321603 23.3397248,32.0321603 L18.3794613,32.0321603 C17.6567056,32.0321603 17.0707965,31.4462511 17.0707965,30.7234955 L17.0707965,21.2484238 C17.0707965,20.5256682 17.6567056,19.939759 18.3794613,19.939759 Z"/>
            <path fill="#7B482D" d="M12.8535585 19.939759L12.8535585 19.939759C14.1165731 19.939759 15.1404488 20.9636347 15.1404488 22.2266494L15.1404488 26.7221696C15.1404488 27.9851843 14.1165731 29.00906 12.8535585 29.00906L12.8535585 29.00906C11.5905438 29.00906 10.5666681 27.9851843 10.5666681 26.7221696L10.5666681 22.2266494C10.5666681 20.9636347 11.5905438 19.939759 12.8535585 19.939759zM29.0390977 20.1155016L29.0390977 20.1155016C30.3021124 20.1155016 31.3259881 21.1393773 31.3259881 22.402392L31.3259881 26.8979122C31.3259881 28.1609269 30.3021124 29.1848026 29.0390977 29.1848026L29.0390977 29.1848026C27.7760831 29.1848026 26.7522074 28.1609269 26.7522074 26.8979122L26.7522074 22.402392C26.7522074 21.1393773 27.7760831 20.1155016 29.0390977 20.1155016z"/>
            <path fill="#363636" d="M17.0316733,24.3281552 L17.0316733,14.537559 C17.0316733,21.3842012 11.0672622,24.0458291 5.77218378,24.3281552 L0.71305944,24.3281552 C0.71305944,11.3315326 11.2489038,0.795688293 24.2455264,0.795688293 L24.4392076,0.795688293 C37.4358302,0.795688293 47.9716745,11.3315326 47.9716745,24.3281552 L17.0316733,24.3281552 Z"/>
          </g>
        </g>
        <path fill="#CA94FF" d="M48.9974549,136.325301 L50.6832456,136.325301 C55.7839573,136.325301 59.9189011,140.460245 59.9189011,145.560957 L39.7617994,145.560957 L39.7617994,145.560957 C39.7617994,140.460245 43.8967432,136.325301 48.9974549,136.325301 Z"/>
        <path fill="#A560E8" d="M40.5276806,144.021681 L59.15302,144.021681 C59.8614521,144.021681 60.4357499,144.595979 60.4357499,145.304411 L60.4357499,145.304411 C60.4357499,146.012843 59.8614521,146.587141 59.15302,146.587141 L40.5276806,146.587141 C39.8192484,146.587141 39.2449507,146.012843 39.2449507,145.304411 L39.2449507,145.304411 C39.2449507,144.595979 39.8192484,144.021681 40.5276806,144.021681 Z"/>
        <path fill="#CA94FF" d="M71.5117455,136.325301 L73.1975362,136.325301 C78.2982479,136.325301 82.4331917,140.460245 82.4331917,145.560957 L62.27609,145.560957 L62.27609,145.560957 C62.27609,140.460245 66.4110338,136.325301 71.5117455,136.325301 Z"/>
        <path fill="#A560E8" d="M63.0419712,144.021681 L81.6673105,144.021681 C82.3757427,144.021681 82.9500404,144.595979 82.9500404,145.304411 L82.9500404,145.304411 C82.9500404,146.012843 82.3757427,146.587141 81.6673105,146.587141 L63.0419712,146.587141 C62.333539,146.587141 61.7592412,146.012843 61.7592412,145.304411 L61.7592412,145.304411 C61.7592412,144.595979 62.333539,144.021681 63.0419712,144.021681 Z"/>
      </g>
    </g>
    <g mask="url(#exp_i_am_thirteen-b)">
      <g transform="translate(160.097 1)">
        <path fill="#326FA7" d="M26.0776535 108.04878L33.3428367 108.04878C33.9133065 108.04878 34.3757636 108.511238 34.3757636 109.081707L34.3757636 150.87573C34.3757636 151.4462 33.9133065 151.908657 33.3428367 151.908657L26.0776535 151.908657C25.5071838 151.908657 25.0447267 151.4462 25.0447267 150.87573L25.0447267 109.081707C25.0447267 108.511238 25.5071838 108.04878 26.0776535 108.04878zM40.1910715 108.04878L47.4562547 108.04878C48.0267245 108.04878 48.4891816 108.511238 48.4891816 109.081707L48.4891816 150.87573C48.4891816 151.4462 48.0267245 151.908657 47.4562547 151.908657L40.1910715 151.908657C39.6206018 151.908657 39.1581447 151.4462 39.1581447 150.87573L39.1581447 109.081707C39.1581447 108.511238 39.6206018 108.04878 40.1910715 108.04878z"/>
        <rect width="13.997" height="4.128" x="36.806" y="147.018" fill="#4D93D4" rx="2.064"/>
        <rect width="13.997" height="4.128" x="22.692" y="147.018" fill="#4D93D4" rx="2.064"/>
        <path fill="#242424" d="M39.7666404,150.77439 L49.6276334,150.77439 C50.483338,150.77439 51.1770236,151.468076 51.1770236,152.32378 L51.1770236,159.544971 C51.1770236,160.400676 50.483338,161.094361 49.6276334,161.094361 L39.7666404,161.094361 C38.9109358,161.094361 38.2172502,160.400676 38.2172502,159.544971 L38.2172502,152.32378 C38.2172502,151.468076 38.9109358,150.77439 39.7666404,150.77439 Z"/>
        <g transform="translate(35.865 73.774)">
          <g transform="scale(-1 1) rotate(8 -65.025 -238.247)">
            <rect width="5.315" height="13.982" x="3.597" y="38.067" fill="#DE8466" rx="2.658" transform="rotate(19 6.255 45.058)"/>
            <path fill="#E59B82" d="M7.87097439,44.4733527 L5.29309021,48.2952232 C4.47794918,49.5037194 2.837467,49.8225969 1.62897072,49.0074558 L1.59869098,48.9870319 C0.390194695,48.1718909 0.0713172632,46.5314087 0.886458298,45.3229124 L5.753453,38.107296 C5.79988933,38.0384513 5.84900411,37.9724937 5.90056489,37.9094683 L8.70170568,33.3442176 C8.78794785,33.2036617 8.88297588,33.0707746 8.98577091,32.9460057 L17.8101314,0.0130439522 L26.9376728,2.45876131 L17.7682691,36.679442 L17.8279597,41.83837 L17.9456634,45.2089633 C17.9965368,46.6657852 16.8567903,47.8880137 15.3999683,47.938887 L15.3634666,47.9401617 C13.9066447,47.991035 12.6844162,46.8512885 12.6335429,45.3944666 L12.6244442,45.1339145 C12.4518742,44.0464952 11.8813065,43.3492023 10.912741,43.0420356 C9.89207978,42.7183475 8.87815757,43.1954532 7.87097439,44.4733527 Z"/>
            <polygon fill="#E59B82" points="12.439 10.276 21.967 10.326 21.967 30.641 12.439 30.591" transform="rotate(15 17.203 20.459)"/>
          </g>
          <path fill="#7AC70C" d="M13.5677615,1.85584771 L13.5677615,1.85584771 C17.3379253,1.85584771 20.3942468,4.91216928 20.3942468,8.682333 C20.3942468,8.71014739 20.3940768,8.73796153 20.3937368,8.76577384 L20.1260072,30.6677096 C20.1224126,30.9617711 19.8830089,31.1982662 19.5889254,31.1982662 L6.84236476,31.1982662 C6.5457205,31.1982662 6.30524281,30.9577885 6.30524281,30.6611443 C6.30524281,30.6589558 6.30525618,30.6567673 6.30528294,30.654579 L6.57285209,8.76577384 C6.61966805,4.93594039 9.73764196,1.85584771 13.5677615,1.85584771 Z" transform="scale(-1 1) rotate(29 0 -35.093)"/>
        </g>
        <rect width="9.862" height="26.643" x="10.192" y="80.376" fill="#E59B82" rx="4.931" transform="scale(1 -1) rotate(-52 -176.984 0)"/>
        <path fill="#7AC70C" d="M22.2516575,75.699294 L22.2516575,75.699294 C26.0659309,75.6188374 29.2232335,78.645694 29.3036901,82.4599675 C29.3047142,82.5085206 29.3052263,82.5570831 29.3052263,82.605647 L29.3052263,100.132928 C29.3052263,100.674447 28.8741807,101.117577 28.3328686,101.132546 L16.0347715,101.472623 C15.4826978,101.487889 15.0227777,101.052721 15.0075114,100.500647 C15.0071852,100.488851 15.0070678,100.47705 15.0071593,100.465249 L15.143371,82.9030045 C15.1738427,78.9741883 18.3235969,75.7821507 22.2516575,75.699294 Z" transform="rotate(51 22.16 88.572)"/>
        <path fill="#242424" d="M24.2418806,150.77439 L34.1028736,150.77439 C34.9585782,150.77439 35.6522638,151.468076 35.6522638,152.32378 L35.6522638,159.544971 C35.6522638,160.400676 34.9585782,161.094361 34.1028736,161.094361 L24.2418806,161.094361 C23.386176,161.094361 22.6924904,160.400676 22.6924904,159.544971 L22.6924904,152.32378 C22.6924904,151.468076 23.386176,150.77439 24.2418806,150.77439 Z"/>
        <rect width="28.227" height="13.932" x="22.692" y="102.415" fill="#326FA7" rx="6.966"/>
        <rect width="28.227" height="3.612" x="22.692" y="108.049"/>
        <g transform="translate(18.929 72.366)">
          <path fill="#95DE18" d="M17.6417725,0 L17.6417725,0 C27.3850544,-1.78981185e-15 35.283545,7.89849059 35.283545,17.6417725 L35.283545,32.9832317 C35.283545,34.409406 34.1274023,35.5655488 32.7012279,35.5655488 L2.58231707,35.5655488 C1.15614273,35.5655488 -2.69433226e-16,34.409406 -4.4408921e-16,32.9832317 L0,17.6417725 C-1.1932079e-15,7.89849059 7.89849059,1.78981185e-15 17.6417725,0 Z"/>
          <ellipse cx="17.642" cy="22.302" fill="#7AC70C" rx="1.647" ry="1.643"/>
          <ellipse cx="17.642" cy="16.198" fill="#7AC70C" rx="1.647" ry="1.643"/>
        </g>
        <path fill="#7AC70C" d="M36.8059084,67.2012195 L36.8059084,67.2012195 C41.4826837,67.2012195 45.2739592,70.992495 45.2739592,75.6692703 L45.2739592,86.0253127 C45.2739592,86.5439215 44.8535436,86.964337 44.3349348,86.964337 C44.2201822,86.964337 44.1064014,86.9433037 43.9992325,86.9022795 L36.6882966,84.1036585 L29.6207873,86.8853054 C29.1382106,87.0752391 28.5930331,86.838005 28.4030994,86.3554282 C28.3599893,86.2458956 28.3378576,86.1292339 28.3378576,86.0115229 L28.3378576,75.6692703 C28.3378576,70.992495 32.129133,67.2012195 36.8059084,67.2012195 Z"/>
        <g fill="#E59B82" transform="scale(-1 1) rotate(-5 889.232 668.514)">
          <path d="M44.0232992,16.999852 L23.8929749,16.999852 L23.8929749,27.6472928 L44.0232992,27.6472928 C47.1268628,27.6472928 49.6421301,25.2637303 49.6421301,22.3238309 C49.6421301,19.3834145 47.1268628,16.999852 44.0232992,16.999852" transform="rotate(10 36.768 22.324)"/>
          <path d="M22.3550981,17.9511479 C22.3701315,18.078994 22.3778624,18.2090742 22.3778624,18.3409601 L22.3778624,20.7844299 L24.5862768,18.9373645 C25.7685963,17.9485006 27.5283789,18.1038806 28.5191337,19.2846161 C29.3998276,20.3341863 29.2629264,21.8989746 28.2133562,22.7796686 C28.1392058,22.8418881 28.0614775,22.8997145 27.98057,22.9528512 L21.9378269,26.9214695 C21.8578215,26.9740137 21.7756767,27.0210856 21.6918548,27.0627532 C21.2570965,27.6272683 20.6402206,28.0514733 19.9131469,28.2421544 L15.7973978,29.3215442 C12.8481955,30.0949972 9.83038697,28.3312039 9.05693391,25.3820015 C8.96003953,25.0125401 8.90174965,24.6340203 8.88300095,24.2525248 L8.6522795,19.5578434 C8.64225302,19.5439808 8.63235997,19.5299711 8.62260325,19.5158147 L5.04624499,14.3267637 C4.22488414,13.1350253 4.52513444,11.503086 5.71687282,10.6817251 C5.76175734,10.6507901 5.80759613,10.6212632 5.85432229,10.5931872 C7.09495879,9.84773763 8.70499969,10.2491659 9.4504493,11.4898024 C9.47852521,11.5365286 9.50513638,11.5841194 9.53024397,11.6325053 L11.3236267,15.0886132 C11.4585583,15.0649194 11.5964616,15.0493512 11.7368442,15.0424521 C11.7908388,15.0397985 11.8448905,15.0384711 11.8989503,15.0384711 L12.4306748,15.0384711 L9.71531029,6.94372814 C9.2466302,5.54655114 9.99932567,4.03397511 11.3965027,3.56529502 C11.4339452,3.55273499 11.471662,3.54100776 11.5096252,3.530122 C12.9262277,3.12391776 14.4039046,3.94300741 14.8101088,5.35960994 C14.8209946,5.39757309 14.8310362,5.43577324 14.8402262,5.47418215 L17.1286562,15.038471 L17.9029789,15.038471 L17.3483527,7.35635791 C17.245134,5.92667821 18.3204431,4.68401854 19.7501228,4.58079984 C19.8123196,4.57630941 19.8746581,4.57406201 19.9370168,4.57406201 C21.4354497,4.57406201 22.6501696,5.78878189 22.6501696,7.2872148 C22.6501696,7.31232179 22.6498211,7.33742757 22.6491242,7.36252489 L22.3550981,17.9511479 Z" transform="rotate(-70 16.84 16.465)"/>
        </g>
        <path fill="#DE8466" d="M36.603646,65.3231707 L36.603646,65.3231707 C39.6097898,65.3231707 42.0467509,67.7601318 42.0467509,70.7662756 L42.0467509,75.876021 C42.0467509,78.8821648 39.6097898,81.3191258 36.603646,81.3191258 L36.603646,81.3191258 C33.5975022,81.3191258 31.1605412,78.8821648 31.1605412,75.876021 L31.1605412,70.7662756 C31.1605412,67.7601318 33.5975022,65.3231707 36.603646,65.3231707 Z"/>
        <g transform="translate(14.695 152.183)">
          <path fill="#363636" d="M9.80636486,0 L11.4476636,0 C16.5772699,-9.422934e-16 20.7356375,4.15836757 20.7356375,9.28797392 L0.518390937,9.28797392 L0.518390937,9.28797392 C0.518390937,4.15836757 4.6767585,9.422934e-16 9.80636486,0 Z"/>
          <path fill="#242424" d="M1.28999638,7.73997827 L19.9640321,7.73997827 C20.6764774,7.73997827 21.2540284,8.31752932 21.2540284,9.02997464 L21.2540284,9.02997464 C21.2540284,9.74241997 20.6764774,10.319971 19.9640321,10.319971 L1.28999638,10.319971 C0.577551051,10.319971 -1.13599588e-13,9.74241997 -1.13686838e-13,9.02997464 L-1.13686838e-13,9.02997464 C-1.13774087e-13,8.31752932 0.577551051,7.73997827 1.28999638,7.73997827 Z"/>
        </g>
        <g transform="translate(37.276 152.183)">
          <path fill="#363636" d="M9.80636486,0 L11.4476636,0 C16.5772699,-9.422934e-16 20.7356375,4.15836757 20.7356375,9.28797392 L0.518390937,9.28797392 L0.518390937,9.28797392 C0.518390937,4.15836757 4.6767585,9.422934e-16 9.80636486,0 Z"/>
          <path fill="#242424" d="M1.28999638,7.73997827 L19.9640321,7.73997827 C20.6764774,7.73997827 21.2540284,8.31752932 21.2540284,9.02997464 L21.2540284,9.02997464 C21.2540284,9.74241997 20.6764774,10.319971 19.9640321,10.319971 L1.28999638,10.319971 C0.577551051,10.319971 -1.13599588e-13,9.74241997 -1.13686838e-13,9.02997464 L-1.13686838e-13,9.02997464 C-1.13774087e-13,8.31752932 0.577551051,7.73997827 1.28999638,7.73997827 Z"/>
        </g>
        <g transform="rotate(11 2.41 78.306)">
          <path fill="#73412A" stroke="#73412A" stroke-linecap="round" stroke-linejoin="round" stroke-width=".939" d="M56.9586004,25.6441084 C59.2993455,28.7532745 59.0038501,33.1368669 56.2183268,35.9108051 C53.4337692,38.6837815 49.0348994,38.9778454 45.9142075,36.647925 L45.4785479,36.32266 L56.6342822,25.2133229 L56.9586004,25.6441084 Z" transform="rotate(43 52.128 31.835)"/>
          <path fill="#73412A" stroke="#73412A" stroke-linecap="round" stroke-linejoin="round" stroke-width=".939" d="M13.2070046,25.6441084 C15.5477497,28.7532745 15.2522543,33.1368669 12.466731,35.9108051 C9.68217341,38.6837815 5.2833036,38.9778454 2.16261163,36.647925 L1.72695208,36.32266 L12.8826864,25.2133229 L13.2070046,25.6441084 Z" transform="rotate(43 8.376 31.835)"/>
          <g transform="translate(1.411 14.555)">
            <path fill="#DE8466" d="M51.0758199,34.4971091 C55.0765787,34.4971091 58.3198346,31.2751144 58.3198346,27.3005826 C58.3198346,23.3260508 55.0765787,20.1040562 51.0758199,20.1040562 C47.075061,20.1040562 43.8318052,23.3260508 43.8318052,27.3005826 C43.8318052,31.2751144 47.075061,34.4971091 51.0758199,34.4971091 Z"/>
            <ellipse cx="7.355" cy="27.301" fill="#DE8466" rx="7.244" ry="7.197"/>
            <g transform="translate(7.211 .01)">
              <rect width="44.063" height="53.148" x=".046" y=".037" fill="#E59B82" rx="22.032"/>
              <path fill="#BA725A" d="M9.07917208 15.5173046L9.07917208 15.5173046C10.3675194 15.5173046 11.4119313 16.5617164 11.4119313 17.8500638L11.4119313 22.4725193C11.4119313 23.7608666 10.3675194 24.8052785 9.07917208 24.8052785L9.07917208 24.8052785C7.79082474 24.8052785 6.74641286 23.7608666 6.74641286 22.4725193L6.74641286 17.8500638C6.74641286 16.5617164 7.79082474 15.5173046 9.07917208 15.5173046zM25.6213972 15.5264429L25.6213972 15.5264429C26.9097445 15.5264429 27.9541564 16.5708548 27.9541564 17.8592021L27.9541564 22.4816576C27.9541564 23.7700049 26.9097445 24.8144168 25.6213972 24.8144168L25.6213972 24.8144168C24.3330498 24.8144168 23.288638 23.7700049 23.288638 22.4816576L23.288638 17.8592021C23.288638 16.5708548 24.3330498 15.5264429 25.6213972 15.5264429z"/>
              <path fill="#DE8466" d="M14.8012914,15.001306 L19.8992778,15.001306 C20.6259721,15.001306 21.2150742,15.5904081 21.2150742,16.3171024 L21.2150742,26.0694748 C21.2150742,26.7961691 20.6259721,27.3852712 19.8992778,27.3852712 L14.8012914,27.3852712 C14.0745972,27.3852712 13.485495,26.7961691 13.485495,26.0694748 L13.485495,16.3171024 C13.485495,15.5904081 14.0745972,15.001306 14.8012914,15.001306 Z"/>
            </g>
          </g>
          <g fill="#73412A" transform="translate(4.234)">
            <path d="M29.4075024,34.8089833 L18.07411,34.8089833 L18.07411,20.5318613 C16.183125,29.2087964 10.9518997,33.9678371 2.3804343,34.8089833 L0.249938488,34.8089833 L0.249938488,33.5571544 C0.249938488,19.2294027 11.8648761,7.61446511 26.1926278,7.61446511 C40.5203795,7.61446511 52.1353171,19.2294027 52.1353171,33.5571544 L52.1353171,34.8089833 L33.1526124,34.8089833 L29.4075024,26.1067375 L29.4075024,34.8089833 Z"/>
            <path stroke="#73412A" stroke-linecap="round" stroke-linejoin="round" stroke-width=".939" d="M21.6537914,10.8642343 C22.2063011,7.01764294 25.5265561,4.12718913 29.4642481,4.12718913 C33.4019401,4.12718913 36.7221951,7.01764294 37.2747048,10.8642343 L37.351732,11.4005004 L21.5767642,11.4005004 L21.6537914,10.8642343 Z" transform="rotate(-45 29.464 7.764)"/>
            <path stroke="#73412A" stroke-linecap="round" stroke-linejoin="round" stroke-width=".939" d="M18.1550513,11.6739038 C18.6084978,8.51699381 21.3331565,6.14503738 24.5644132,6.14503738 C27.7956699,6.14503738 30.5203286,8.51699381 30.9737751,11.6739038 L31.0508023,12.2101698 L18.0780241,12.2101698 L18.1550513,11.6739038 Z" transform="scale(-1 1) rotate(-45 0 68.481)"/>
          </g>
          <g transform="matrix(-1 0 0 1 42.98 44.835)">
            <path fill="#A53C3C" d="M1.90184049,0 L15.6581521,2.22044605e-16 C16.7085096,-9.03807802e-16 17.5599926,0.851482991 17.5599926,1.90184049 L17.5599926,14.2638037 C17.5599926,15.3141612 16.7085096,16.1656442 15.6581521,16.1656442 L8.08282209,16.1656442 C3.61880271,16.1656442 5.46684704e-16,12.5468415 0,8.08282209 L2.22044605e-16,1.90184049 C9.34129099e-17,0.851482991 0.851482991,1.08112596e-15 1.90184049,8.8817842e-16 Z"/>
            <path fill="#BD4545" d="M11.3746966,16.1656442 L8.08282209,16.1656442 C4.5145051,16.1656442 1.48624905,13.8533684 0.414675056,10.6454381 C1.52601122,9.92648661 2.85003815,9.50920245 4.27134956,9.50920245 C8.04354099,9.50920245 11.130477,12.4484818 11.3746966,16.1656442 Z"/>
            <path fill="#FFF" d="M15.1870206,1.8662849e-13 L15.1870206,3.80368098 C15.1870206,4.32885973 14.7612792,4.75460123 14.2361004,4.75460123 L1.02225173e-12,4.75460123 L1.02247377e-12,1.90184049 C1.02234514e-12,0.851482991 0.851482991,1.87487572e-13 1.90184049,1.87294624e-13 L15.1870206,1.86620886e-13 Z"/>
          </g>
        </g>
      </g>
    </g>
  </g>
</svg>
