<?xml version="1.0" encoding="UTF-8"?>
<svg width="601px" height="330px" viewBox="0 0 601 330" version="1.1" xmlns="http://www.w3.org/2000/svg" xmlns:xlink="http://www.w3.org/1999/xlink">
    <!-- Generator: Sketch 51.2 (57519) - http://www.bohemiancoding.com/sketch -->
    <title>girl_mom_watching_movies</title>
    <desc>Created with Sketch.</desc>
    <defs></defs>
    <g id="Page-1" stroke="none" stroke-width="1" fill="none" fill-rule="evenodd">
        <g id="girl_mom_watching_movies">
            <g id="Group" transform="translate(144.000000, 0.000000)" fill-rule="nonzero">
                <g transform="translate(201.000000, 3.000000)">
                    <g>
                        <path d="M0.226,58.827 L0.226,4.383 C0.226,2.109 2.069,0.266 4.343,0.266 L86.141,0.266 C88.414,0.266 90.258,2.109 90.258,4.383 L90.258,58.827 C90.258,61.101 88.415,62.944 86.141,62.944 L4.343,62.944 C2.069,62.944 0.226,61.1 0.226,58.827 Z" id="Shape" fill="#EBF2F4"></path>
                        <rect id="Rectangle-path" fill="#FFFFFF" transform="translate(45.241700, 31.392200) rotate(90.000000) translate(-45.241700, -31.392200) " x="20.2902" y="-7.4488" width="49.903" height="77.682"></rect>
                    </g>
                    <path d="M2.089,45.606 L22.477,29.295 C26.94,25.725 33.4,26.2 37.292,30.385 L52.964,47.237 C53.719,48.049 54.982,48.117 55.82,47.39 L70.554,34.608 C73.53,32.027 77.914,31.906 81.027,34.32 L88.28,39.944 L88.28,59.568 L3.118,59.568 L2.089,45.606 Z" id="Shape" fill="#EBF2F4"></path>
                    <circle id="Oval" fill="#EBF2F4" cx="55.798" cy="22.129" r="8.683"></circle>
                </g>
                <g>
                    <g>
                        <path d="M0.154,58.74 L0.154,4.296 C0.154,2.022 1.997,0.179 4.271,0.179 L86.069,0.179 C88.343,0.179 90.186,2.022 90.186,4.296 L90.186,58.74 C90.186,61.014 88.343,62.857 86.069,62.857 L4.27,62.857 C1.997,62.856 0.154,61.013 0.154,58.74 Z" id="Shape" fill="#EBF2F4"></path>
                        <rect id="Rectangle-path" fill="#FFFFFF" transform="translate(45.169500, 31.305100) rotate(90.000000) translate(-45.169500, -31.305100) " x="20.218" y="-7.5359" width="49.903" height="77.682"></rect>
                    </g>
                    <g transform="translate(21.000000, 12.000000)" fill="#EBF2F4">
                        <g transform="translate(0.000000, 9.000000)">
                            <circle id="Oval" cx="10.533" cy="7.82" r="7.633"></circle>
                            <path d="M20.31,35.35 L20.31,28.888 C20.31,23.511 15.91,19.111 10.533,19.111 C5.156,19.111 0.756,23.511 0.756,28.888 L0.756,35.35 L20.31,35.35 Z" id="Shape"></path>
                        </g>
                        <g transform="translate(28.000000, 0.000000)" id="Shape">
                            <path d="M9.805,19.65 C4.428,19.65 0.028,24.05 0.028,29.427 L0.028,44.35 L19.582,44.35 L19.582,29.427 C19.582,24.05 15.183,19.65 9.805,19.65 Z"></path>
                            <path d="M17.438,15.992 L17.438,8.359 C17.438,4.143 14.021,0.726 9.805,0.726 C5.589,0.726 2.172,4.143 2.172,8.359 L2.172,15.992 L17.438,15.992 Z"></path>
                        </g>
                    </g>
                </g>
            </g>
            <path d="M455.398,259.612 L124.012,259.612 L124.012,124.793 C124.012,106.68 138.832,91.86 156.945,91.86 L422.465,91.86 C440.578,91.86 455.398,106.68 455.398,124.793 L455.398,259.612 Z" id="Shape" fill="#CFE2E7" fill-rule="nonzero"></path>
            <path d="M182.035,247.899 L182.035,205.064 C182.035,173.07 156.007,147.042 124.013,147.042 L124.013,247.899 L182.035,247.899 Z" id="Shape" fill="#ADCBD2" fill-rule="nonzero"></path>
            <path d="M149.388,193.962 L135.133,179.114 L165.29,149.999 C169.39,146.063 175.905,146.195 179.842,150.296 C183.779,154.396 183.646,160.911 179.545,164.848 L149.388,193.962 Z" id="Shape" fill="#FDD204" fill-rule="nonzero"></path>
            <path d="M237.412,227.314 L260.118,227.314 L226.104,157.31 C223.597,152.209 217.43,150.105 212.328,152.612 C207.226,155.119 205.123,161.286 207.63,166.388 L237.412,227.314 Z" id="Shape" fill="#FDD204" fill-rule="nonzero"></path>
            <g id="Group" transform="translate(4.000000, 213.000000)" fill-rule="nonzero">
                <g transform="translate(0.000000, 33.000000)" fill="#7CC142" id="Shape">
                    <path d="M59.682,35.822 C59.682,35.822 81.968,26.639 90.006,2.316 C90.499,0.823 88.805,-0.447 87.505,0.437 L51.462,24.952 L59.682,35.822 Z"></path>
                    <path d="M30.582,35.822 C30.582,35.822 8.296,26.639 0.258,2.316 C-0.235,0.823 1.459,-0.447 2.759,0.437 L38.802,24.952 L30.582,35.822 Z"></path>
                </g>
                <g transform="translate(8.000000, 12.000000)" fill="#52AE48" id="Shape">
                    <path d="M0.758,4.064 C2.485,12.982 7.86,30.312 24.307,58.798 L33.043,53.754 L41.779,48.71 C25.332,20.223 13.012,6.903 6.152,0.949 C3.793,-1.098 0.164,0.997 0.758,4.064 Z"></path>
                    <path d="M73.507,4.064 C71.78,12.982 66.405,30.312 49.958,58.798 L41.222,53.754 L32.486,48.71 C48.933,20.223 61.253,6.903 68.113,0.949 C70.472,-1.098 74.101,0.997 73.507,4.064 Z"></path>
                </g>
                <path d="M42.018,3.128 C39.055,11.715 35.045,29.41 35.045,62.304 L45.132,62.304 L55.219,62.304 C55.219,29.411 51.209,11.715 48.246,3.128 C47.227,0.175 43.037,0.175 42.018,3.128 Z" id="Shape" fill="#7CC142"></path>
            </g>
            <g id="Group" transform="translate(460.000000, 205.000000)" fill-rule="nonzero">
                <path d="M84.983,20.846 L79.73,21.554 C78.836,21.675 78.276,20.617 78.877,19.945 L82.632,15.752 C79.148,8.896 75.369,4.139 72.919,1.458 C71.451,-0.148 69.104,-0.148 67.636,1.458 C66.054,3.19 63.913,5.801 61.658,9.267 L63.956,12.92 C64.174,13.265 63.843,13.695 63.453,13.573 L59.732,12.406 C55.776,19.262 51.842,28.736 50.206,40.935 L70.277,65.36 L90.349,40.935 C89.304,33.134 87.314,26.451 84.983,20.846 Z" id="Shape" fill="#52AE48"></path>
                <path d="M138.933,53.052 C132.441,47.909 119.589,40.373 102.863,43.732 C78.194,48.686 65.527,72.422 65.527,72.422 L113.315,63.192 L115.354,59.109 C115.617,58.582 116.388,58.643 116.565,59.205 L117.564,62.372 L137.596,58.503 C140.188,58.001 141.003,54.692 138.933,53.052 Z" id="Shape" fill="#52AE48"></path>
                <path d="M122.336,28.376 C114.258,26.557 99.401,25.338 85.781,35.628 C65.705,50.796 64.592,77.677 64.592,77.677 L94.184,55.66 L94.558,48.45 C94.592,47.799 95.43,47.559 95.803,48.093 L98.729,52.278 L123.482,33.862 C125.596,32.291 124.905,28.955 122.336,28.376 Z" id="Shape" fill="#7CC142"></path>
                <g transform="translate(0.000000, 27.000000)" id="Shape">
                    <path d="M1.624,26.052 C8.116,20.909 20.968,13.373 37.694,16.732 C62.363,21.686 75.03,45.422 75.03,45.422 L27.242,36.192 L25.203,32.109 C24.94,31.582 24.169,31.643 23.992,32.205 L22.993,35.372 L2.961,31.503 C0.369,31.001 -0.446,27.692 1.624,26.052 Z" fill="#52AE48"></path>
                    <path d="M18.222,1.376 C26.3,-0.443 41.157,-1.662 54.777,8.628 C74.853,23.796 75.965,50.677 75.965,50.677 L46.373,28.66 L45.999,21.45 C45.965,20.799 45.127,20.559 44.754,21.093 L41.828,25.278 L17.075,6.862 C14.962,5.291 15.653,1.955 18.222,1.376 Z" fill="#7CC142"></path>
                </g>
                <path d="M41.274,64.095 C39.452,64.095 37.975,65.572 37.975,67.394 L37.975,79.413 C37.975,91.899 45.064,102.723 55.433,108.1 L55.433,113.803 L85.125,113.803 L85.125,108.1 C95.494,102.723 102.583,91.899 102.583,79.413 L102.583,67.394 C102.583,65.572 101.106,64.095 99.284,64.095 L41.274,64.095 Z" id="Shape" fill="#ADCBD2"></path>
                <rect id="Rectangle-path" fill="#CFE2E7" x="37.975" y="71.569" width="64.607" height="7.843"></rect>
            </g>
            <path d="M20.128,269.095 C18.306,269.095 16.829,270.572 16.829,272.394 L16.829,284.413 C16.829,296.899 23.918,307.723 34.287,313.1 L34.287,318.803 L63.979,318.803 L63.979,313.1 C74.348,307.723 81.437,296.899 81.437,284.413 L81.437,272.394 C81.437,270.572 79.96,269.095 78.138,269.095 L20.128,269.095 Z" id="Shape" fill="#ADCBD2" fill-rule="nonzero"></path>
            <rect id="Rectangle-path" fill="#CFE2E7" fill-rule="nonzero" x="16.829" y="276.569" width="64.607" height="7.843"></rect>
            <path d="M455.398,247.898 L455.398,147.041 C423.404,147.041 397.376,173.069 397.376,205.063 L397.376,247.898 L455.398,247.898 Z" id="Shape" fill="#ADCBD2" fill-rule="nonzero"></path>
            <path d="M492.837,247.898 L492.837,205.063 C492.837,184.472 475.99,167.624 455.398,167.624 C434.807,167.624 417.959,184.472 417.959,205.063 L417.959,247.898 L492.837,247.898 Z" id="Shape" fill="#CFE2E7" fill-rule="nonzero"></path>
            <path d="M477.4,301.677 L102.011,301.677 C93.485,301.677 86.574,294.766 86.574,286.24 L86.574,247.898 L492.838,247.898 L492.838,286.24 C492.837,294.766 485.926,301.677 477.4,301.677 Z" id="Shape" fill="#CFE2E7" fill-rule="nonzero"></path>
            <circle id="Oval" fill="#EBF2F4" fill-rule="nonzero" cx="455.398" cy="201.366" r="10.681"></circle>
            <rect id="Rectangle-path" fill="#EBF2F4" fill-rule="nonzero" transform="translate(289.705500, 237.606100) rotate(90.000000) translate(-289.705500, -237.606100) " x="279.414" y="109.3521" width="20.583" height="256.508"></rect>
            <rect id="Rectangle-path" fill="#295575" fill-rule="nonzero" x="140.494" y="301.677" width="41.914" height="17.126"></rect>
            <rect id="Rectangle-path" fill="#295575" fill-rule="nonzero" x="397.003" y="301.677" width="41.914" height="17.126"></rect>
            <path d="M573.797,329.821 L5.614,329.821 C2.584,329.821 0.105,327.342 0.105,324.312 C0.105,321.282 2.584,318.803 5.614,318.803 L573.797,318.803 C576.827,318.803 579.306,321.282 579.306,324.312 C579.306,327.342 576.827,329.821 573.797,329.821 Z" id="Shape" fill="#295575" fill-rule="nonzero"></path>
            <path d="M151.158,179.247 C149.465,180.94 146.695,180.94 145.002,179.247 L139.969,174.214 C138.276,172.521 138.276,169.751 139.969,168.058 C141.662,166.365 144.432,166.365 146.125,168.058 L151.158,173.091 C152.851,174.784 152.851,177.554 151.158,179.247 Z" id="Shape" fill="#DD8265" fill-rule="nonzero"></path>
            <path d="M161.451,247.898 L161.451,205.063 C161.451,184.472 144.604,167.624 124.012,167.624 C103.42,167.624 86.573,184.472 86.573,205.063 L86.573,247.898 L161.451,247.898 Z" id="Shape" fill="#CFE2E7" fill-rule="nonzero"></path>
            <circle id="Oval" fill="#EBF2F4" fill-rule="nonzero" cx="124.012" cy="201.366" r="10.681"></circle>
            <path d="M205.206,141.342 C205.206,141.342 219.826,144.388 226.104,157.31 L205.206,157.782 L205.206,141.342 Z" id="Shape" fill="#FDD204" fill-rule="nonzero"></path>
            <path d="M165.29,149.999 C165.29,149.999 175.384,141.343 184.475,141.343 L184.475,149.999 L165.29,149.999 Z" id="Shape" fill="#FDD204" fill-rule="nonzero"></path>
            <path d="M292.006,238.265 C289.391,236.854 288.405,233.56 289.816,230.945 L301.212,209.82 C302.623,207.205 305.917,206.219 308.532,207.63 C311.147,209.041 312.133,212.335 310.722,214.95 L299.326,236.075 C297.915,238.69 294.621,239.676 292.006,238.265 Z" id="Shape" fill="#E59A80" fill-rule="nonzero"></path>
            <path d="M307.744,220.267 L288.106,209.242 L334.223,127.095 C337.267,121.672 344.132,119.744 349.555,122.788 C354.978,125.832 356.906,132.697 353.862,138.12 L307.744,220.267 Z" id="Shape" fill="#4359A7" fill-rule="nonzero"></path>
            <path d="M439.378,178.84 L439.236,178.84 L409.039,178.848 L409.242,156.319 L421.724,156.319 L387.12,122.15 C395.906,113.252 410.241,113.162 419.138,121.947 L450.281,152.698 C455.866,158.213 456.579,167.122 451.252,173.668 C448.384,177.193 443.924,178.84 439.378,178.84 Z" id="Shape" fill="#4359A7" fill-rule="nonzero"></path>
            <g id="Group" transform="translate(331.000000, 117.000000)" fill-rule="nonzero">
                <path d="M75.198,87.104 L75.198,18.851 C75.198,8.951 66.399,0.851 55.644,0.851 L20.052,0.851 C9.297,0.851 0.498,8.951 0.498,18.851 L0.498,87.104 L75.198,87.104 Z" id="Shape" fill="#4359A7"></path>
                <path d="M37.847,37.904 C51.319,37.904 62.279,26.944 62.279,13.472 L62.279,2.042 C60.202,1.285 57.973,0.851 55.643,0.851 L20.051,0.851 C17.721,0.851 15.492,1.285 13.415,2.042 L13.415,13.472 C13.415,26.945 24.375,37.904 37.847,37.904 Z" id="Shape" fill="#2B4382"></path>
                <path d="M37.848,32.758 C48.455,32.758 57.134,24.079 57.134,13.472 L57.134,0.927 C56.64,0.889 56.147,0.851 55.644,0.851 L20.052,0.851 C19.549,0.851 19.055,0.889 18.562,0.927 L18.562,13.472 C18.561,24.08 27.24,32.758 37.848,32.758 Z" id="Shape" fill="#DD8265"></path>
            </g>
            <path d="M223.896,203.579 L223.896,172.595 C223.896,155.406 209.832,141.342 192.644,141.342 C175.455,141.342 161.392,155.406 161.392,172.595 L161.392,203.579 L223.896,203.579 Z" id="Shape" fill="#FDD204" fill-rule="nonzero"></path>
            <path d="M178.352,142.448 L178.352,149.25 C178.352,157.36 184.95,163.958 193.06,163.958 C201.17,163.958 207.767,157.36 207.767,149.25 L207.767,142.081 C206.197,141.551 205.206,141.342 205.206,141.342 L205.206,144.002 C201.356,142.297 197.107,141.342 192.644,141.342 C189.82,141.342 187.083,141.728 184.476,142.439 L184.476,141.342 C182.443,141.342 180.361,141.777 178.352,142.448 Z" id="Shape" fill="#FDBC11" fill-rule="nonzero"></path>
            <path d="M193.059,159.841 C187.234,159.841 182.469,155.075 182.469,149.251 L182.469,116.752 C182.469,110.927 187.235,106.162 193.059,106.162 C198.884,106.162 203.649,110.928 203.649,116.752 L203.649,149.251 C203.65,155.076 198.884,159.841 193.059,159.841 Z" id="Shape" fill="#DD8265" fill-rule="nonzero"></path>
            <g id="Group" transform="translate(156.000000, 45.000000)" fill-rule="nonzero">
                <g transform="translate(12.000000, 0.000000)">
                    <circle id="Oval" fill="#985632" cx="24.685" cy="24.638" r="24.325"></circle>
                    <path d="M38.707,19.564 L38.375,19.485 C36.64,19.074 35.355,17.611 35.172,15.837 C34.863,12.85 31.606,11.147 28.977,12.598 L26.712,13.848 C25.451,14.544 23.921,14.544 22.661,13.848 L20.396,12.598 C17.767,11.147 14.51,12.85 14.201,15.837 C14.018,17.61 12.732,19.074 10.998,19.485 L10.666,19.564 C7.606,20.289 6.404,24.001 8.459,26.382 L11.261,29.629 C12.29,30.821 13.901,31.336 15.43,30.962 L23.691,28.941 C24.345,28.781 25.028,28.781 25.683,28.941 L33.944,30.962 C35.474,31.336 37.084,30.821 38.113,29.629 L40.915,26.382 C42.969,24 41.767,20.289 38.707,19.564 Z" id="Shape" fill="#FDD204"></path>
                </g>
                <path d="M68.505,71.73 L68.505,51.998 C68.505,34.547 54.227,20.269 36.776,20.269 C19.325,20.269 5.047,34.547 5.047,51.998 L5.047,71.73 L68.505,71.73 Z" id="Shape" fill="#985632"></path>
                <circle id="Oval" fill="#DD8265" cx="63.161" cy="68.299" r="9.181"></circle>
                <circle id="Oval" fill="#DD8265" cx="10.125" cy="68.299" r="9.181"></circle>
                <path d="M36.775,32.389 C51.999,32.389 64.455,44.845 64.455,60.069 L64.455,74.285 C64.455,89.509 51.999,101.964 36.776,101.964 C21.552,101.964 9.096,89.508 9.096,74.284 L9.096,60.068 C9.096,44.845 21.552,32.389 36.775,32.389 Z" id="Shape" fill="#E59A80"></path>
                <g transform="translate(18.000000, 68.000000)" fill="#DD8265" id="Oval">
                    <g transform="translate(30.000000, 1.000000)">
                        <circle transform="translate(2.195641, 7.106176) rotate(-71.168265) translate(-2.195641, -7.106176) " cx="2.1956409" cy="7.1061757" r="1.65805147"></circle>
                        <circle transform="translate(5.381598, 2.151922) rotate(-71.168265) translate(-5.381598, -2.151922) " cx="5.3815979" cy="2.151922" r="1.65805147"></circle>
                    </g>
                    <g>
                        <circle transform="translate(5.380512, 7.943559) rotate(-18.831735) translate(-5.380512, -7.943559) " cx="5.3805124" cy="7.9435591" r="1.65805147"></circle>
                        <circle transform="translate(2.195459, 2.989316) rotate(-18.831735) translate(-2.195459, -2.989316) " cx="2.1954587" cy="2.9893161" r="1.65805147"></circle>
                    </g>
                </g>
                <path d="M36.775,84.725 C30.239,84.725 25.715,81.446 25.525,81.306 C24.985,80.908 24.87,80.148 25.268,79.607 C25.666,79.068 26.425,78.952 26.967,79.35 C27.005,79.378 31.066,82.295 36.774,82.295 C42.482,82.295 46.544,79.378 46.585,79.348 C47.126,78.953 47.885,79.069 48.282,79.61 C48.678,80.15 48.564,80.909 48.024,81.305 C47.836,81.447 43.311,84.725 36.775,84.725 Z" id="Shape" fill="#D28871"></path>
                <path d="M17.251,61.162 C16.748,61.162 16.25,60.951 15.901,60.539 C15.272,59.797 15.353,58.691 16.09,58.056 C16.244,57.923 19.935,54.813 26.181,55.139 C27.158,55.191 27.908,56.024 27.857,57.001 C27.805,57.978 26.973,58.721 25.995,58.677 C21.231,58.422 18.506,60.653 18.392,60.748 C18.059,61.027 17.654,61.162 17.251,61.162 Z" id="Shape" fill="#82472B"></path>
                <g transform="translate(25.000000, 61.000000)" id="Shape">
                    <path d="M11.815,17.15 L11.736,17.15 C9.663,17.15 7.967,15.454 7.967,13.381 L7.967,3.94 C7.967,1.867 9.663,0.171 11.736,0.171 L11.815,0.171 C13.888,0.171 15.584,1.867 15.584,3.94 L15.584,13.381 C15.584,15.454 13.888,17.15 11.815,17.15 Z" fill="#DD8265"></path>
                    <g fill="#B26955">
                        <path d="M3.073,12.859 C1.713,12.859 0.6,11.746 0.6,10.386 L0.6,2.664 C0.6,1.304 1.713,0.191 3.073,0.191 C4.433,0.191 5.546,1.304 5.546,2.664 L5.546,10.386 C5.545,11.746 4.433,12.859 3.073,12.859 Z"></path>
                        <path d="M20.478,12.859 C19.118,12.859 18.005,11.746 18.005,10.386 L18.005,2.664 C18.005,1.304 19.118,0.191 20.478,0.191 C21.838,0.191 22.951,1.304 22.951,2.664 L22.951,10.386 C22.951,11.746 21.838,12.859 20.478,12.859 Z"></path>
                    </g>
                </g>
                <path d="M36.775,30.13 C28.659,30.13 21.33,33.672 16.256,39.284 L16.256,42.465 C16.256,50.258 21.632,57.022 29.224,58.781 L64.455,66.944 L64.455,57.809 C64.455,42.586 51.999,30.13 36.775,30.13 Z" id="Shape" fill="#985632"></path>
            </g>
            <path d="M217.721,227.314 L167.566,227.314 C164.156,227.314 161.391,224.549 161.391,221.139 L161.391,203.578 L223.896,203.578 L223.896,221.139 C223.896,224.55 221.131,227.314 217.721,227.314 Z" id="Shape" fill="#DB90B5" fill-rule="nonzero"></path>
            <g id="Group" transform="translate(166.000000, 201.000000)" fill-rule="nonzero">
                <g id="Shape">
                    <g transform="translate(0.000000, 55.000000)">
                        <path d="M11.643,42.62 C5.76,42.62 0.946,37.807 0.946,31.923 L0.946,11.574 C0.946,5.691 5.759,0.877 11.643,0.877 C17.526,0.877 22.34,5.69 22.34,11.574 L22.34,31.923 C22.34,37.807 17.526,42.62 11.643,42.62 Z" fill="#DB90B5"></path>
                        <path d="M14.673,29.7 L8.612,29.7 C7.475,29.7 6.554,28.778 6.554,27.642 L6.554,16.579 L16.732,16.579 L16.732,27.642 C16.732,28.779 15.81,29.7 14.673,29.7 Z" fill="#E59A80"></path>
                    </g>
                    <path d="M22.34,71.579 L22.34,10.939 C22.34,5.056 17.526,0.242 11.643,0.242 C5.76,0.242 0.946,5.056 0.946,10.939 L0.946,71.579 L22.34,71.579 Z" fill="#F1AACB"></path>
                </g>
                <g transform="translate(30.000000, 0.000000)" id="Shape">
                    <g transform="translate(0.000000, 55.000000)">
                        <path d="M11.643,42.62 C5.76,42.62 0.946,37.807 0.946,31.923 L0.946,11.574 C0.946,5.691 5.759,0.877 11.643,0.877 C17.526,0.877 22.34,5.69 22.34,11.574 L22.34,31.923 C22.34,37.807 17.526,42.62 11.643,42.62 Z" fill="#DB90B5"></path>
                        <path d="M14.674,29.7 L8.613,29.7 C7.476,29.7 6.555,28.778 6.555,27.642 L6.555,16.579 L16.733,16.579 L16.733,27.642 C16.732,28.779 15.811,29.7 14.674,29.7 Z" fill="#E59A80"></path>
                    </g>
                    <path d="M22.34,71.579 L22.34,10.939 C22.34,5.056 17.526,0.242 11.643,0.242 C5.76,0.242 0.946,5.056 0.946,10.939 L0.946,71.579 L22.34,71.579 Z" fill="#F1AACB"></path>
                </g>
            </g>
            <g id="Group" transform="translate(124.000000, 162.000000)" fill="#E59A80" fill-rule="nonzero">
                <path d="M4.366,16.458 C1.972,16.458 0.013,14.499 0.013,12.105 L0.013,4.988 C0.013,2.594 1.972,0.635 4.366,0.635 C6.76,0.635 8.719,2.594 8.719,4.988 L8.719,12.105 C8.719,14.5 6.76,16.458 4.366,16.458 Z" id="Shape"></path>
                <path d="M11.524,18.517 C9.13,18.517 7.171,16.558 7.171,14.164 L7.171,4.988 C7.171,2.594 9.13,0.635 11.524,0.635 C13.918,0.635 15.877,2.594 15.877,4.988 L15.877,14.164 C15.878,16.558 13.919,18.517 11.524,18.517 Z" id="Shape"></path>
                <path d="M18.683,16.458 C16.289,16.458 14.33,14.499 14.33,12.105 L14.33,4.988 C14.33,2.594 16.289,0.635 18.683,0.635 C21.077,0.635 23.036,2.594 23.036,4.988 L23.036,12.105 C23.036,14.5 21.077,16.458 18.683,16.458 Z" id="Shape"></path>
            </g>
            <g id="Group" transform="translate(230.000000, 218.000000)" fill-rule="nonzero">
                <path d="M14.95,4.438 L5.391,4.438 C2.709,4.438 0.515,6.632 0.515,9.314 L19.826,9.314 C19.826,6.633 17.632,4.438 14.95,4.438 Z" id="Shape" fill="#DD8265"></path>
                <g transform="translate(7.000000, 0.000000)" fill="#E59A80" id="Shape">
                    <path d="M5.067,16.197 C2.673,16.197 0.714,14.238 0.714,11.844 L0.714,4.727 C0.714,2.333 2.673,0.374 5.067,0.374 C7.461,0.374 9.42,2.333 9.42,4.727 L9.42,11.844 C9.42,14.238 7.461,16.197 5.067,16.197 Z"></path>
                    <path d="M12.226,18.255 C9.832,18.255 7.873,16.296 7.873,13.902 L7.873,4.726 C7.873,2.332 9.832,0.373 12.226,0.373 C14.62,0.373 16.579,2.332 16.579,4.726 L16.579,13.902 C16.579,16.296 14.62,18.255 12.226,18.255 Z"></path>
                    <path d="M19.384,16.197 C16.99,16.197 15.031,14.238 15.031,11.844 L15.031,4.727 C15.031,2.333 16.99,0.374 19.384,0.374 C21.778,0.374 23.737,2.333 23.737,4.727 L23.737,11.844 C23.737,14.238 21.779,16.197 19.384,16.197 Z"></path>
                </g>
            </g>
            <g id="Group" transform="translate(333.000000, 31.000000)" fill-rule="nonzero">
                <path d="M35.98,102.924 C29.71,102.924 24.579,97.794 24.579,91.523 L24.579,52.186 C24.579,45.916 29.709,40.785 35.98,40.785 C42.25,40.785 47.381,45.915 47.381,52.186 L47.381,91.523 C47.381,97.794 42.25,102.924 35.98,102.924 Z" id="Shape" fill="#DD8265"></path>
                <path d="M49.094,93.2 L66.401,93.2 C69.243,93.2 71.547,90.896 71.547,88.054 L71.547,48.922 L42.21,48.922 L42.21,86.316 C42.21,90.118 45.292,93.2 49.094,93.2 Z" id="Shape" fill="#985632"></path>
                <path d="M35.98,67.676 L8.186,67.676 C3.747,67.676 0.149,64.078 0.149,59.639 L0.149,22.356 C0.149,18.183 3.532,14.8 7.705,14.8 L35.98,14.8 L35.98,67.676 Z" id="Shape" fill="#985632"></path>
                <path d="M71.445,50.284 L18.951,50.284 L18.951,0.518 L49.116,0.518 C61.448,0.518 71.445,10.515 71.445,22.847 L71.445,50.284 Z" id="Shape" fill="#985632"></path>
                <path d="M18.951,50.78 C14.021,50.78 10.01,46.769 10.01,41.839 L10.01,9.458 C10.01,4.528 14.021,0.517 18.951,0.517 C23.881,0.517 27.892,4.528 27.892,9.458 L27.892,41.839 C27.892,46.769 23.881,50.78 18.951,50.78 Z" id="Shape" fill="#985632"></path>
                <path d="M18.951,47.693 C15.732,47.693 13.098,45.059 13.098,41.84 L13.098,9.459 C13.098,6.24 15.732,3.606 18.951,3.606 C22.17,3.606 24.804,6.24 24.804,9.459 L24.804,41.84 C24.804,45.059 22.17,47.693 18.951,47.693 Z" id="Shape" fill="#82472B"></path>
                <circle id="Oval" fill="#DD8265" cx="62.365" cy="48.923" r="9.181"></circle>
                <circle id="Oval" fill="#DD8265" cx="9.33" cy="48.923" r="9.181"></circle>
                <path d="M63.659,37.604 C63.659,21.632 49.949,8.707 33.717,10.016 C19.252,11.182 8.301,23.654 8.301,38.166 L8.301,60.175 C8.301,67.513 12.208,74.297 18.555,77.979 L25.651,82.096 C32.038,85.801 39.921,85.801 46.308,82.096 L53.404,77.979 C59.751,74.297 63.658,67.513 63.658,60.175 L63.659,37.604 Z" id="Shape" fill="#E59A80"></path>
                <g transform="translate(18.000000, 32.000000)" fill="#82472B" id="Shape">
                    <path d="M2.46,6.646 C1.957,6.646 1.459,6.435 1.11,6.023 C0.481,5.281 0.562,4.175 1.299,3.54 C1.453,3.407 5.144,0.297 11.39,0.623 C12.367,0.675 13.117,1.508 13.066,2.485 C13.014,3.462 12.182,4.205 11.204,4.161 C6.44,3.906 3.715,6.137 3.601,6.232 C3.269,6.51 2.863,6.646 2.46,6.646 Z"></path>
                    <path d="M33.5,6.646 C34.003,6.646 34.501,6.435 34.85,6.023 C35.479,5.281 35.398,4.175 34.661,3.54 C34.507,3.407 30.816,0.297 24.57,0.623 C23.593,0.675 22.843,1.508 22.894,2.485 C22.946,3.462 23.778,4.205 24.756,4.161 C29.52,3.906 32.245,6.137 32.359,6.232 C32.691,6.51 33.097,6.646 33.5,6.646 Z"></path>
                </g>
                <g transform="translate(24.000000, 40.000000)" id="Shape">
                    <path d="M11.98,24.319 C5.444,24.319 0.92,21.04 0.73,20.9 C0.19,20.502 0.075,19.742 0.473,19.201 C0.871,18.662 1.63,18.546 2.172,18.944 C2.21,18.972 6.271,21.889 11.979,21.889 C17.687,21.889 21.749,18.972 21.79,18.942 C22.331,18.547 23.09,18.663 23.487,19.204 C23.883,19.744 23.769,20.503 23.229,20.899 C23.041,21.041 18.516,24.319 11.98,24.319 Z" fill="#D28871"></path>
                    <g>
                        <path d="M12.019,17.744 L11.94,17.744 C9.867,17.744 8.171,16.048 8.171,13.975 L8.171,4.534 C8.171,2.461 9.867,0.765 11.94,0.765 L12.019,0.765 C14.092,0.765 15.788,2.461 15.788,4.534 L15.788,13.975 C15.789,16.048 14.092,17.744 12.019,17.744 Z" fill="#DD8265"></path>
                        <g fill="#B26955">
                            <path d="M3.277,13.453 C1.917,13.453 0.804,12.34 0.804,10.98 L0.804,3.258 C0.804,1.898 1.917,0.785 3.277,0.785 C4.637,0.785 5.75,1.898 5.75,3.258 L5.75,10.98 C5.75,12.34 4.637,13.453 3.277,13.453 Z"></path>
                            <path d="M20.683,13.453 C19.323,13.453 18.21,12.34 18.21,10.98 L18.21,3.258 C18.21,1.898 19.323,0.785 20.683,0.785 C22.043,0.785 23.156,1.898 23.156,3.258 L23.156,10.98 C23.156,12.34 22.043,13.453 20.683,13.453 Z"></path>
                        </g>
                    </g>
                </g>
                <path d="M33.717,7.958 C30.552,8.213 27.555,9.01 24.805,10.25 L24.805,25.301 C24.805,28.707 27.01,31.721 30.257,32.752 L42.793,36.731 C44.12,37.152 45.474,36.162 45.474,34.769 L45.474,27.483 L64.899,35.686 C64.898,20.039 48.621,6.756 33.717,7.958 Z" id="Shape" fill="#985632"></path>
                <path d="M59.495,31.57 L59.495,42.828 C59.495,45.973 60.587,49.02 62.585,51.448 L63.659,52.753 L63.659,32.17 L59.495,31.57 Z" id="Shape" fill="#985632"></path>
                <g transform="translate(1.000000, 54.000000)" fill="#FDD204" id="Oval">
                    <circle cx="4.08" cy="4.223" r="3.229"></circle>
                    <circle cx="65.888" cy="4.223" r="3.229"></circle>
                </g>
            </g>
            <rect id="Rectangle-path" fill="#D18B45" fill-rule="nonzero" x="347.922" y="203.934" width="43.684" height="23.364"></rect>
            <g id="Group" transform="translate(331.000000, 190.000000)" fill-rule="nonzero">
                <g fill="#E5A258" id="Shape">
                    <path d="M59.247,30.236 L19.974,37.056 C10.83,38.668 0.498,32.23 0.498,23.419 L0.498,14.104 L54.741,4.682 L59.247,30.236 Z"></path>
                    <path d="M80.429,26.501 L59.247,30.236 L54.741,4.682 L75.923,0.947 C82.98,-0.297 89.709,4.415 90.953,11.471 C92.197,18.527 87.485,25.256 80.429,26.501 Z"></path>
                    <path d="M88.126,5.384 L136.417,62.935 L116.539,79.614 L68.248,22.063 C63.642,16.574 64.358,8.39 69.847,3.784 C75.337,-0.821 83.52,-0.105 88.126,5.384 Z"></path>
                </g>
                <path d="M117.204,80.407 L112.571,74.885 L144.591,48.064 C147.204,45.875 151.096,46.218 153.287,48.829 C155.48,51.443 155.137,55.341 152.521,57.532 L124.45,81.045 C122.273,82.868 119.03,82.583 117.204,80.407 Z" id="Shape" fill="#FDD204"></path>
            </g>
            <path d="M404.58,308.981 L404.58,222.375 C404.58,215.063 398.742,209.08 391.606,209.08 C384.47,209.08 378.632,215.063 378.632,222.375 L378.632,308.981 L404.58,308.981 Z" id="Shape" fill="#D18B45" fill-rule="nonzero"></path>
            <path d="M407.778,306.516 L375.433,306.516 C372.037,306.516 369.258,309.295 369.258,312.691 C369.258,316.087 372.037,318.866 375.433,318.866 L407.778,318.866 C411.174,318.866 413.953,316.087 413.953,312.691 C413.953,309.295 411.175,306.516 407.778,306.516 Z" id="Shape" fill="#FDD204" fill-rule="nonzero"></path>
            <rect id="Rectangle-path" fill="#E59A80" fill-rule="nonzero" x="401.196" y="156.319" width="20.529" height="22.521"></rect>
            <g id="Group" transform="translate(379.000000, 152.000000)" fill-rule="nonzero">
                <path d="M24.461,0.445 L17.191,0.445 L17.191,26.84 L24.461,26.84 C31.757,26.84 37.726,20.901 37.726,13.642 C37.727,6.384 31.757,0.445 24.461,0.445 Z" id="Shape" fill="#E59A80"></path>
                <g transform="translate(0.000000, 8.000000)">
                    <path d="M27.308,10.806 L2.364,10.806 C1.292,10.806 0.423,9.937 0.423,8.865 L0.423,2.42 C0.423,1.348 1.292,0.479 2.364,0.479 L27.308,0.479 C28.38,0.479 29.249,1.348 29.249,2.42 L29.249,8.865 C29.25,9.937 28.38,10.806 27.308,10.806 Z" id="Shape" fill="#EBF2F4"></path>
                    <ellipse id="Oval" fill="#EF4849" cx="14.836" cy="5.643" rx="2.355" ry="2.343"></ellipse>
                </g>
                <path d="M24.291,8.479 L16.378,8.479 C14.169,8.479 12.361,6.671 12.361,4.462 C12.361,2.253 14.169,0.445 16.378,0.445 L24.291,0.445 C26.5,0.445 28.308,2.253 28.308,4.462 C28.308,6.671 26.501,8.479 24.291,8.479 Z" id="Shape" fill="#E59A80"></path>
                <path d="M22.809,26.84 L4.439,26.84 C2.22,26.84 0.422,25.042 0.422,22.823 C0.422,20.604 2.22,18.806 4.439,18.806 L22.809,18.806 L22.809,26.84 Z" id="Shape" fill="#E59A80"></path>
            </g>
            <path d="M288.105,209.242 L283.789,216.314 C283.415,216.926 282.75,217.3 282.032,217.3 L274.217,217.3 C269.603,217.3 265.471,220.157 263.842,224.474 L262.776,227.297 L303.942,227.297 L307.744,220.266 L288.105,209.242 Z" id="Shape" fill="#E59A80" fill-rule="nonzero"></path>
            <g id="Group" transform="translate(277.000000, 145.000000)">
                <circle id="Oval" fill="#ADCBD2" fill-rule="nonzero" cx="12.705" cy="12.782" r="6.151"></circle>
                <path d="M4.471,4.547 L0.87,0.947" id="Shape" stroke="#ADCBD2" stroke-width="3.9451" stroke-linecap="round"></path>
                <path d="M4.471,21.016 L0.87,24.617" id="Shape" stroke="#ADCBD2" stroke-width="3.9451" stroke-linecap="round"></path>
                <path d="M20.94,21.016 L24.541,24.617" id="Shape" stroke="#ADCBD2" stroke-width="3.9451" stroke-linecap="round"></path>
                <path d="M20.94,4.547 L24.541,0.947" id="Shape" stroke="#ADCBD2" stroke-width="3.9451" stroke-linecap="round"></path>
            </g>
            <g id="Group" transform="translate(20.000000, 122.000000)" fill="#EBF2F4" fill-rule="nonzero">
                <g id="Shape">
                    <path d="M35.246,19.342 L2.595,19.342 C1.458,19.342 0.537,18.42 0.537,17.284 L0.537,2.539 C0.537,1.402 1.459,0.481 2.595,0.481 L35.246,0.481 C36.383,0.481 37.304,1.403 37.304,2.539 L37.304,17.284 C37.305,18.421 36.383,19.342 35.246,19.342 Z"></path>
                    <path d="M51.946,45.213 L19.295,45.213 C18.158,45.213 17.237,44.291 17.237,43.155 L17.237,28.41 C17.237,27.273 18.159,26.352 19.295,26.352 L51.946,26.352 C53.083,26.352 54.004,27.274 54.004,28.41 L54.004,43.155 C54.005,44.291 53.083,45.213 51.946,45.213 Z"></path>
                </g>
                <g transform="translate(485.000000, 0.000000)" id="Shape">
                    <path d="M19.165,19.342 L51.816,19.342 C52.953,19.342 53.874,18.42 53.874,17.284 L53.874,2.539 C53.874,1.402 52.952,0.481 51.816,0.481 L19.165,0.481 C18.028,0.481 17.107,1.403 17.107,2.539 L17.107,17.284 C17.106,18.421 18.028,19.342 19.165,19.342 Z"></path>
                    <path d="M2.464,45.213 L35.115,45.213 C36.252,45.213 37.173,44.291 37.173,43.155 L37.173,28.41 C37.173,27.273 36.251,26.352 35.115,26.352 L2.464,26.352 C1.327,26.352 0.406,27.274 0.406,28.41 L0.406,43.155 C0.406,44.291 1.328,45.213 2.464,45.213 Z"></path>
                </g>
            </g>
        </g>
    </g>
</svg>