<?xml version="1.0" encoding="UTF-8"?>
<svg width="212px" height="212px" viewBox="0 0 212 212" version="1.1" xmlns="http://www.w3.org/2000/svg" xmlns:xlink="http://www.w3.org/1999/xlink">
    <title>girl</title>
    <g id="girl" stroke="none" stroke-width="1" fill="none" fill-rule="evenodd">
        <g id="Group-2" transform="translate(-15.000000, -15.000000)">
            <g id="Group" transform="translate(0.246582, 0.000000)">
                <path d="M75.9195465,36.1335132 L166.720763,36.0407642 C188.71645,36.0182967 206.565691,53.8311106 206.588158,75.8267976 C206.588186,75.8539183 206.588186,75.881039 206.588158,75.9081596 L206.495409,166.709376 C206.472974,188.673296 188.673296,206.472974 166.709376,206.495409 L75.9081596,206.588158 C53.9124726,206.610626 36.0632317,188.797812 36.0407642,166.802125 C36.0407365,166.775004 36.0407365,166.747883 36.0407642,166.720763 L36.1335132,75.9195465 C36.1559482,53.9556267 53.9556267,36.1559482 75.9195465,36.1335132 Z" id="Rectangle-Copy-42" fill="#363636" transform="translate(121.314461, 121.314461) rotate(-315.000000) translate(-121.314461, -121.314461) "></path>
                <path d="M75.8267352,36 L166.453965,36 C188.449663,36 206.2807,53.8310367 206.2807,75.8267352 L206.2807,166.802187 C206.2807,188.797886 188.449663,206.628922 166.453965,206.628922 L75.8267352,206.628922 C53.8310367,206.628922 36,188.797886 36,166.802187 L36,75.8267352 C36,53.8310367 53.8310367,36 75.8267352,36 Z" id="Rectangle-Copy-42" fill="#363636" transform="translate(121.140350, 121.314461) rotate(-270.000000) translate(-121.140350, -121.314461) "></path>
                <path d="M94.4408981,81.1409215 L148.19577,81.1409215 C164.265419,81.1409215 177.292443,94.167946 177.292443,110.237595 L177.292443,164.314245 C177.292443,180.383894 164.265419,193.410918 148.19577,193.410918 L94.4408981,193.410918 C78.371249,193.410918 65.3442245,180.383894 65.3442245,164.314245 L65.3442245,110.237595 C65.3442245,94.167946 78.371249,81.1409215 94.4408981,81.1409215 Z" id="Mask" fill="#A56644"></path>
                <path d="M120.917968,155.260739 C124.322554,155.260739 127.082517,152.557243 127.082517,149.222313 C127.082517,145.887383 120.917968,138 120.917968,138 C120.917968,138 114.753418,145.887383 114.753418,149.222313 C114.753418,152.557243 117.513381,155.260739 120.917968,155.260739 Z" id="Oval-Copy-50" fill="#80411F"></path>
                <circle id="Oval" fill="#A56644" cx="182.224083" cy="134.140597" r="9.37011521"></circle>
                <circle id="Oval-Copy-9" fill="#A56644" cx="59.919421" cy="135.620089" r="9.37011521"></circle>
                <path d="M111.297687,163.04581 C110.635439,162.43416 110.56816,161.371439 111.147416,160.672156 C111.726671,159.972872 112.733109,159.901831 113.395358,160.51348 C115.567758,162.519899 118.304991,163.635654 121.201192,163.635654 C124.139474,163.635654 126.913785,162.487026 129.099544,160.427165 C129.755966,159.808552 130.763027,159.868961 131.348877,160.562092 C131.934727,161.255223 131.877517,162.318602 131.221095,162.937214 C128.459213,165.540015 124.932874,167 121.201192,167 C117.522898,167 114.043293,165.581638 111.297687,163.04581 Z" id="Oval-24-Copy" fill="#914D28" fill-rule="nonzero" transform="translate(121.253418, 163.500000) scale(-1, 1) translate(-121.253418, -163.500000) "></path>
                <path d="M188.019196,70.0638425 L168.178234,79.9843238 C165.175411,81.4857351 161.524008,80.2686008 160.022597,77.2657782 C159.600556,76.4216964 159.380835,75.4909446 159.380835,74.5472325 L159.380835,54.7062699 C159.380835,51.3490121 162.10243,48.627417 165.459688,48.627417 C166.4034,48.627417 167.334152,48.8471377 168.178234,49.2691786 L188.019196,59.1896599 C191.022019,60.6910712 192.239153,64.3424742 190.737742,67.3452968 C190.14953,68.5217215 189.195621,69.4756302 188.019196,70.0638425 Z" id="Triangle-Copy-4" fill="#FFB100" transform="translate(175.380835, 64.627417) rotate(-315.000000) translate(-175.380835, -64.627417) "></path>
                <path d="M180.207263,86.9419513 C179.067601,86.353739 178.143502,85.3998303 177.573672,84.2234057 C176.119179,81.2205831 177.298278,77.56918 180.207263,76.0677687 L199.428195,66.1472874 C200.2459,65.7252465 201.147565,65.5055258 202.061786,65.5055258 C205.31413,65.5055258 207.950675,68.227121 207.950675,71.5843787 L207.950675,91.4253413 C207.950675,92.3690534 207.737821,93.2998052 207.328969,94.143887 C205.874476,97.1467096 202.33718,98.363844 199.428195,96.8624326 L180.207263,86.9419513 Z" id="Triangle-Copy-3" fill="#FFB100" transform="translate(192.450675, 81.505526) rotate(-315.000000) translate(-192.450675, -81.505526) "></path>
                <path d="M99.753418,193 L142.953418,193 L142.953418,223.4 C142.953418,225.388225 141.341643,227 139.353418,227 L103.353418,227 C101.365193,227 99.753418,225.388225 99.753418,223.4 L99.753418,193 L99.753418,193 Z" id="Rectangle-Copy-99" fill="#FFAE00"></path>
                <path d="M138.353418,193 L138.353418,194.7 C138.353418,199.836248 134.189666,204 129.053418,204 C125.974599,204 123.245213,202.503898 121.552608,200.199041 C119.861623,202.503898 117.132237,204 114.053418,204 C108.91717,204 104.753418,199.836248 104.753418,194.7 L104.753418,193 L138.353418,193 Z" id="Path" fill="#FFFFFF"></path>
                <ellipse id="Oval-Copy-18" fill="#FFFFFF" cx="121.553418" cy="216" rx="4.8" ry="5"></ellipse>
                <rect id="Rectangle-Copy-5" fill="#FFFFFF" x="122.439693" y="104" width="43" height="43" rx="21.5"></rect>
                <rect id="Rectangle-Copy-4" fill="#FFFFFF" x="76.0671435" y="104" width="43" height="43" rx="21.5"></rect>
                <path d="M138.351457,113 C144.204593,113 148.949496,117.744904 148.949496,123.598039 L148.949496,129.401961 C148.949496,135.255096 144.204593,140 138.351457,140 C132.498322,140 127.753418,135.255096 127.753418,129.401961 L127.753418,123.598039 C127.753418,123.019169 127.799828,122.451139 127.88913,121.897466 C128.246859,121.965463 128.616071,122 128.99335,122 C132.334202,122 135.042498,119.291813 135.042498,115.951095 C135.042498,115.148838 134.886312,114.383059 134.602685,113.682504 C135.767797,113.241327 137.031444,113 138.351457,113 Z" id="Path" fill="#363636"></path>
                <path d="M103.351457,112 C109.204593,112 113.949496,116.744904 113.949496,122.598039 L113.949496,129.401961 C113.949496,135.255096 109.204593,140 103.351457,140 C97.4983218,140 92.753418,135.255096 92.753418,129.401961 L92.753418,122.598039 C92.753418,122.355454 92.7615684,122.114772 92.7776104,121.876253 C93.1704143,121.957933 93.5769692,122 93.9933497,122 C97.3342021,122 100.042498,119.291813 100.042498,115.951095 C100.042498,114.817615 99.7307208,113.756951 99.1882428,112.850178 C100.46571,112.30264 101.873241,112 103.351457,112 Z" id="Path" fill="#363636"></path>
                <path d="M165.653419,131 L165.653419,131 L165.653419,131 L165.653419,162.900001 L133.753418,162.900001 C133.753418,145.282117 148.035535,131 165.653419,131 Z" id="Rectangle-Copy-5" fill="#A56644" transform="translate(149.703418, 146.950000) rotate(-315.000000) translate(-149.703418, -146.950000) "></path>
                <path d="M107.653419,131 L107.653419,131 L107.653419,131 L107.653419,162.900001 L75.753418,162.900001 C75.753418,145.282117 90.0355348,131 107.653419,131 Z" id="Rectangle-Copy-4" fill="#A56644" transform="translate(91.703418, 146.950000) scale(-1, 1) rotate(-315.000000) translate(-91.703418, -146.950000) "></path>
                <path d="M77.253418,55 C91.6886848,55 103.390781,66.7020959 103.390781,81.1373626 L103.390781,93.8626374 C103.390781,108.297904 91.6886848,120 77.253418,120 C62.8181512,120 51.1160554,108.297904 51.1160554,93.8626374 L51.1160554,81.1373626 C51.1160554,66.7020959 62.8181512,55 77.253418,55 Z" id="Rectangle-Copy-28" fill="#363636"></path>
            </g>
            <g id="Mask" transform="translate(65.590807, 81.140922)"></g>
        </g>
    </g>
</svg>